<?xml version="1.0" encoding="utf-8"?>
<!-- Generator: Adobe Illustrator 16.0.3, SVG Export Plug-In . SVG Version: 6.00 Build 0)  -->
<!DOCTYPE svg PUBLIC "-//W3C//DTD SVG 1.1//EN" "http://www.w3.org/Graphics/SVG/1.1/DTD/svg11.dtd">
<svg version="1.1" id="Layer_1" xmlns="http://www.w3.org/2000/svg" xmlns:xlink="http://www.w3.org/1999/xlink" x="0px" y="0px"
	 width="500px" height="500px" viewBox="0 0 500 500" enable-background="new 0 0 500 500" xml:space="preserve">
<g>
	<g>
		<path d="M202.172,448.223c0.232-3.457,1.077-10.005,2.511-19.537c1.237-8.47,1.912-15.252,2.005-20.155
			c0-0.479-0.128-0.805-0.402-1.079c-0.274-0.274-0.602-0.402-1.029-0.402h-0.47c-0.218,0.073-0.402,0.205-0.568,0.405l-0.747,0.898
			l-0.772-0.877c-0.6-0.682-1.286-1.208-2.04-1.565c-0.908-0.393-2.224-0.599-3.88-0.599c-2.199,0-4.297,0.47-6.237,1.397
			c-1.958,0.936-3.714,2.239-5.218,3.873c-1.54,1.674-2.912,3.522-4.078,5.493c-1.165,1.971-2.19,4.159-3.046,6.504
			c-1.671,4.562-2.668,9.327-2.964,14.168c-0.291,4.793,0.192,8.909,1.435,12.231c1.252,3.2,2.76,5.402,4.475,6.532
			c1.86,1.188,3.772,1.243,5.866,0.155c3.031-1.602,6.229-5.8,9.499-12.474c0.547-1.141,1.099-2.336,1.65-3.578l2.748-6.197
			l-0.842,6.727c-0.367,2.938-0.646,5.588-0.827,7.877c0-0.001,0-0.001,0-0.001c0.001,0-0.023,0.211-0.08,0.566
			c-0.105,0.524-0.126,0.804-0.126,0.952c-0.038,0.618,0.06,1.102,0.296,1.539c0.281,0.501,0.73,0.849,1.365,1.049
			c0.474,0.17,0.765,0.138,1.125-0.044c0.374-0.187,0.614-0.461,0.759-0.867c0.165-0.522,0.069-0.984-0.321-1.463l-0.331-0.406
			l0.146-0.503C202.14,448.61,202.173,448.401,202.172,448.223z M199.819,426.597c-1.77,5.659-3.774,10.813-5.958,15.316
			c-3.043,6.184-5.728,9.827-8.21,11.145c-0.531,0.267-1.026,0.396-1.494,0.396c-0.528,0-1.012-0.158-1.439-0.471
			c-1.162-0.735-2.268-2.413-3.328-5.093c-1.113-2.656-1.536-6.348-1.25-10.955c0.282-4.547,1.237-9.048,2.839-13.38
			c1.658-4.599,3.86-8.33,6.543-11.084c2.778-2.851,5.893-4.297,9.26-4.297c1.267,0,2.133,0.141,2.715,0.44
			c0.571,0.239,1.081,0.761,1.557,1.593c0.282,0.535,0.638,0.751,1.207,0.751l1.323-0.058l-0.185,1.205
			C202.79,416.083,201.585,420.958,199.819,426.597z"/>
		<path d="M240.179,451.105c0.169-0.604,0.151-0.805,0.15-0.813c-0.033-0.176-0.065-0.326-0.101-0.431l-0.158-0.165l-0.031-0.351
			c-0.096-1.086-0.282-2.83-0.553-5.184c-0.277-2.207-0.467-3.953-0.561-5.18c-0.228-3.657-0.636-9.002-1.214-15.9
			c-0.58-6.903-0.986-11.838-1.215-14.804c-0.03-0.436-0.186-0.758-0.493-1.022c-0.279-0.241-0.583-0.354-0.956-0.354l-0.129,0.005
			c-0.426,0.028-0.748,0.184-1.013,0.49c-0.267,0.309-0.377,0.653-0.349,1.084c0.227,3.018,0.614,7.672,1.182,14.223l0.203,2.335
			l-1.826-1.47c-1.307-1.053-2.804-1.77-4.45-2.131c-0.983-0.214-1.968-0.322-2.926-0.322c-0.675,0-1.353,0.054-2.015,0.16
			c-1.63,0.262-3.204,0.768-4.678,1.505c-2.894,1.469-5.121,3.65-6.614,6.483c-1.479,2.809-1.652,5.79-0.529,9.113
			c0.955,2.825,2.658,5.32,5.06,7.416c0.812,0.729,2.228,1.575,4.218,2.526c2.038,0.975,4.2,1.861,6.429,2.635
			c2.507,0.805,4.743,1.353,6.622,1.62c2.4,0.331,4.23,0.125,5.354-0.611C239.874,451.754,240.075,451.473,240.179,451.105z
			 M235.993,449.836c-0.411-0.045-0.867-0.092-1.369-0.136c-1.734-0.246-3.76-0.775-6.074-1.58c-2.106-0.701-4.107-1.5-5.937-2.369
			c-1.895-0.897-3.124-1.589-3.753-2.113c-2.003-1.801-3.406-3.883-4.198-6.214c-0.829-2.43-0.669-4.785,0.474-6.998
			c1.117-2.153,2.88-3.832,5.244-4.989c2.212-1.229,4.58-1.684,6.923-1.305c2.405,0.392,4.314,1.624,5.673,3.662
			c0.305,0.474,0.651,0.67,1.166,0.67l1.079-0.052l0.073,0.974c0.278,3.709,0.51,6.953,0.696,9.733
			c0.09,1.315,0.27,3.094,0.55,5.436c0.279,1.98,0.463,3.378,0.557,4.168l0.15,1.251L235.993,449.836z"/>
		<path d="M266.014,426.473c0.138-2.685,0.045-5.958-0.273-9.78c-0.054-0.364-0.228-0.707-0.526-0.99
			c-0.243-0.23-0.512-0.353-0.839-0.379l-0.046,0.02l-0.224,0.04c-0.365,0.028-0.65,0.156-0.897,0.403l-0.494,0.494l-0.634-0.294
			c-0.141-0.065-0.266-0.142-0.373-0.228c-2.596-1.485-5.072-1.902-7.414-1.245c-2.122,0.625-4.049,2.092-5.716,4.355
			c-2.844,3.863-4.674,9.333-5.438,16.257c-0.763,6.732-0.232,12.091,1.578,15.929c1.083,2.336,2.505,3.703,4.35,4.184
			c1.911,0.459,4.157-0.209,6.493-2.041c1.95-1.518,3.745-4.013,5.338-7.419l2.037-4.354l-0.131,4.805
			c-0.092,3.355-0.139,6.244-0.139,8.588c0,0.381,0.139,0.697,0.437,0.996c0.591,0.59,1.458,0.596,2.062-0.003
			c0.295-0.295,0.434-0.611,0.434-0.993c0-1.016,0.114-7.703,0.348-20.443C265.991,431.282,266.014,428.647,266.014,426.473z
			 M261.937,433.68c-1.024,3.864-2.068,7.064-3.102,9.508c-1.613,3.715-3.275,6.226-5.087,7.684
			c-1.396,1.06-2.525,1.566-3.475,1.566c-0.162,0-0.316-0.015-0.463-0.043l-0.109-0.026c-0.886-0.272-1.653-1.103-2.344-2.537
			c-1.561-3.363-1.988-8.194-1.274-14.371c0.712-6.398,2.365-11.398,4.912-14.859c1.228-1.739,2.6-2.85,4.064-3.283
			c1.583-0.453,3.333-0.113,5.233,0.997c0.44,0.262,0.803,0.282,1.25,0.088l1.329-0.581l0.07,1.449
			c0.093,1.919,0.14,4.295,0.14,7.063C262.984,428.76,262.6,431.218,261.937,433.68z"/>
		<path d="M275.74,441.048c-0.185-3.394-0.138-8.335,0.139-14.687c0.275-6.869,0.346-11.937,0.209-15.059
			c-0.028-0.411-0.179-0.738-0.473-1.003c-0.277-0.252-0.594-0.369-0.999-0.369c-0.485,0.017-0.786,0.155-1.041,0.452
			c-0.287,0.331-0.419,0.674-0.419,1.085c0.138,3.018,0.067,7.979-0.21,14.699c-0.323,6.497-0.37,11.553-0.14,15.037
			c0.089,0.941,0.297,2.811,0.618,5.579c0.281,2.199,0.425,3.972,0.425,5.255c0,0.382,0.139,0.698,0.436,0.993
			c0.594,0.598,1.46,0.6,2.06,0.001c0.296-0.296,0.435-0.612,0.435-0.994c0-1.452-0.138-3.354-0.409-5.649
			C275.994,443.664,275.787,441.911,275.74,441.048z"/>
		<g>
			<path d="M289.992,454.576c0.394,0.19,0.76,0.218,1.17,0.088c0.393-0.126,0.65-0.346,0.835-0.713
				c0.177-0.354,0.195-0.701,0.057-1.091c-1.077-3.224-1.411-7.711-1.03-13.738c0.047-0.741,0.129-1.97,0.244-3.686
				c0.115-1.709,0.197-2.958,0.244-3.743c0.044-0.778,0.091-2.02,0.137-3.719c0.054-2.038-0.035-2.969-0.119-3.391l-0.018-0.128
				c-0.028-0.426-0.185-0.747-0.491-1.013c-0.279-0.241-0.575-0.354-0.931-0.354l-0.119,0.004c-0.402,0.027-0.726,0.195-1.014,0.527
				c-0.274,0.314-0.373,0.615-0.322,0.975c0.102,0.654,0.128,1.75,0.08,3.435c-0.048,1.591-0.095,2.759-0.141,3.505
				c-0.047,0.745-0.127,1.963-0.242,3.654c-0.117,1.687-0.197,2.943-0.244,3.774c-0.406,6.287-0.002,11.253,1.2,14.765
				C289.408,454.151,289.62,454.396,289.992,454.576z"/>
			<path d="M298.374,408.915c0.875-2.498,0.986-4.405,0.331-5.672c-0.503-1.076-1.306-1.578-2.545-1.613l-0.163-0.004
				c-0.905,0-1.998,0.316-3.25,0.94c-1.304,0.652-2.367,1.765-3.25,3.401l-0.615,1.142l-0.947-0.886
				c-1.22-1.141-2.525-1.801-3.88-1.962c-0.263-0.032-0.515-0.048-0.759-0.048c-1.504,0-2.649,0.622-3.504,1.902
				c-0.953,1.526-0.994,3.151-0.107,4.941c0.943,1.912,2.686,3.578,5.178,4.951c0.207,0.133,0.591,0.368,1.22,0.754
				c0.632,0.382,1.151,0.689,1.56,0.913c1.368,0.703,2.684,0.935,3.885,0.667c0.716-0.116,1.413-0.554,2.134-1.312
				c0.566-0.566,1.155-1.31,1.768-2.228C296.671,412.938,297.662,410.957,298.374,408.915z M292.99,413.141
				c-0.489,0.784-0.945,1.388-1.375,1.815c-0.23,0.23-0.422,0.376-0.619,0.471l-0.205,0.098h-0.227c-0.46,0-0.988-0.171-1.661-0.538
				c-0.299-0.125-0.768-0.384-1.31-0.73l-1.366-0.818c-0.853-0.472-1.618-0.987-2.246-1.516c-0.685-0.573-1.138-1.079-1.387-1.546
				c-0.22-0.409-0.378-0.803-0.469-1.167c-0.069-0.271-0.13-0.606-0.063-0.936v-0.293l0.157-0.246
				c0.305-0.476,0.818-0.712,1.56-0.589c0.995,0.124,1.967,0.822,2.935,2.129c0.418,0.523,0.81,0.588,1.066,0.588
				c0.178,0,0.377-0.036,0.591-0.107l0.391-0.131l0.369,0.183c0.15,0.074,0.317,0.149,0.504,0.225
				c0.371,0.097,0.696,0.056,1.031-0.133c0.34-0.189,0.552-0.479,0.668-0.913c0.274-0.831,0.645-1.569,1.116-2.254
				c0.511-0.738,1.029-1.247,1.587-1.558l0.117-0.056c0.202-0.08,0.385-0.159,0.545-0.24l1.788-0.898l-0.354,1.969
				c-0.1,0.551-0.273,1.223-0.517,1.999C294.975,409.771,294.095,411.507,292.99,413.141z"/>
		</g>
		<path d="M324.785,426.473c0.137-2.675,0.044-5.948-0.275-9.78c-0.056-0.371-0.225-0.705-0.525-0.99
			c-0.243-0.231-0.513-0.354-0.841-0.38l-0.043,0.019l-0.227,0.042c-0.365,0.028-0.652,0.157-0.901,0.405l-0.5,0.498l-0.637-0.305
			c-0.139-0.066-0.259-0.141-0.361-0.225c-2.597-1.483-5.068-1.9-7.412-1.243c-2.123,0.625-4.051,2.092-5.716,4.355
			c-2.845,3.866-4.675,9.336-5.438,16.257c-0.763,6.733-0.231,12.092,1.578,15.929c1.083,2.336,2.505,3.703,4.35,4.184
			c1.913,0.459,4.159-0.209,6.494-2.042c1.953-1.519,3.748-4.014,5.338-7.417l2.037-4.36l-0.131,4.811
			c-0.093,3.367-0.139,6.257-0.138,8.588c0,0.382,0.139,0.697,0.437,0.993c0.599,0.599,1.467,0.595,2.059,0.002
			c0.299-0.299,0.438-0.615,0.438-0.995c0-1.057,0.119-8.126,0.346-20.443C324.76,431.282,324.785,428.647,324.785,426.473z
			 M320.709,433.679c-1.028,3.874-2.072,7.074-3.103,9.509c-1.609,3.709-3.272,6.22-5.088,7.684
			c-1.397,1.06-2.526,1.566-3.474,1.566c-0.001,0-0.001,0-0.001,0c-0.161,0-0.315-0.015-0.463-0.043l-0.108-0.026
			c-0.888-0.271-1.655-1.102-2.346-2.537c-1.561-3.361-1.986-8.192-1.272-14.371c0.71-6.397,2.363-11.398,4.911-14.859
			c1.227-1.738,2.598-2.849,4.064-3.283c1.584-0.45,3.332-0.112,5.234,0.996c0.44,0.266,0.802,0.283,1.248,0.089l1.328-0.58
			l0.071,1.446c0.094,1.906,0.142,4.283,0.142,7.065C321.757,428.75,321.372,431.207,320.709,433.679z"/>
	</g>
	<g>
		<g>
			<path fill="#221F20" d="M250,42.558c-76.214,0-140.042,52.971-156.698,124.1H406.69C390.034,95.529,326.204,42.558,250,42.558z"
				/>
			<path fill="#D81E05" d="M93.302,166.658c-2.776,11.838-4.236,24.156-4.236,36.833c0,88.89,72.045,160.952,160.935,160.952
				c88.891,0,160.935-72.063,160.935-160.952c0-12.678-1.477-24.995-4.243-36.833H93.302L93.302,166.658z"/>
		</g>
	</g>
</g>
</svg>
