<?xml version="1.0" encoding="utf-8"?>
<!-- Generator: Adobe Illustrator 16.0.3, SVG Export Plug-In . SVG Version: 6.00 Build 0)  -->
<!DOCTYPE svg PUBLIC "-//W3C//DTD SVG 1.1//EN" "http://www.w3.org/Graphics/SVG/1.1/DTD/svg11.dtd">
<svg version="1.1" id="Layer_1" xmlns="http://www.w3.org/2000/svg" xmlns:xlink="http://www.w3.org/1999/xlink" x="0px" y="0px"
	 width="500px" height="500px" viewBox="0 0 500 500" enable-background="new 0 0 500 500" xml:space="preserve">
<g>
	<g>
		<g>
			<path fill="#221F20" d="M250,43.748c-76.214,0-140.042,52.971-156.698,124.1h313.388C390.033,96.719,326.204,43.748,250,43.748z"
				/>
			<path fill="#D81E05" d="M93.302,167.848c-2.777,11.838-4.236,24.156-4.236,36.833c0,88.891,72.045,160.953,160.935,160.953
				s160.935-72.062,160.935-160.953c0-12.677-1.478-24.995-4.245-36.833H93.302z"/>
		</g>
		<g>
			<path fill="#221F20" d="M276.971,326.631c0,14.155-11.479,25.643-25.643,25.643c-14.172,0-25.64-11.487-25.64-25.643
				c0-14.162,11.468-25.649,25.64-25.649C265.491,300.981,276.971,312.469,276.971,326.631z"/>
			<g>
				<path fill="#221F20" d="M276.971,260.753c0,14.164-11.479,25.641-25.643,25.641c-14.172,0-25.64-11.477-25.64-25.641
					c0-14.163,11.468-25.65,25.64-25.65C265.491,235.103,276.971,246.59,276.971,260.753z"/>
				<path fill="#221F20" d="M369.817,232.897c-14.161,0-25.648-11.477-25.648-25.631c0-14.172,11.487-25.65,25.648-25.65
					c14.166,0,25.651,11.478,25.651,25.65C395.469,221.42,383.983,232.897,369.817,232.897z"/>
				<path fill="#221F20" d="M130.181,232.897c-14.162,0-25.649-11.477-25.649-25.631c0-14.172,11.487-25.65,25.649-25.65
					c14.165,0,25.642,11.478,25.642,25.65C155.822,221.42,144.346,232.897,130.181,232.897z"/>
				<path fill="#221F20" d="M208.388,232.897c-14.163,0-25.633-11.477-25.633-25.631c0-14.172,11.47-25.65,25.633-25.65
					c14.174,0,25.65,11.478,25.65,25.65C234.038,221.42,222.562,232.897,208.388,232.897z"/>
				<path fill="#221F20" d="M291.604,232.897c-14.166,0-25.643-11.477-25.643-25.631c0-14.172,11.477-25.65,25.643-25.65
					c14.163,0,25.658,11.478,25.658,25.65C317.263,221.42,305.768,232.897,291.604,232.897z"/>
				<path fill="#221F20" d="M354.243,272.646c10.012,10.019,10.012,26.259,0,36.279c-10.021,10.001-26.26,10.001-36.261,0
					c-10.019-10.021-10.019-26.261-0.008-36.279C327.983,262.635,344.223,262.635,354.243,272.646z"/>
				<path fill="#221F20" d="M147.27,273.79c10.021-10.021,26.249-10.021,36.262,0c10.021,10.021,10.021,26.261,0,36.271
					c-10.013,10.021-26.241,10.001-36.262,0C137.249,300.051,137.249,283.811,147.27,273.79z"/>
			</g>
		</g>
	</g>
	<g>
		<path d="M150.366,414.96c0-0.697,0.384-1.267,1.151-1.709c0.769-0.441,1.676-0.826,2.723-1.152
			c1.047-0.324,2.082-0.569,3.105-0.732c1.023-0.162,1.791-0.314,2.304-0.454c3.49-0.838,6.886-1.65,10.189-2.442
			c3.304-0.791,6.596-1.501,9.877-2.129c3.28-0.628,6.596-1.139,9.945-1.535c3.351-0.395,6.816-0.594,10.399-0.594v2.024
			c-2.886,0.14-5.652,0.442-8.306,0.907c-2.651,0.466-5.211,0.977-7.677,1.535c-2.468,0.559-4.816,1.142-7.05,1.745
			c-2.233,0.605-4.327,1.141-6.281,1.605c0.372,0.279,0.698,0.652,0.977,1.116c0.279,0.466,0.442,0.955,0.489,1.466
			c0.045,0.838,0.115,2.153,0.209,3.943c0.093,1.793,0.186,3.863,0.279,6.212c0.093,2.351,0.186,4.863,0.279,7.538
			c0.093,2.677,0.175,5.282,0.244,7.817c0.069,2.537,0.128,4.886,0.175,7.05c0.046,2.163,0.046,3.942,0,5.339
			c-0.047,1.211-0.257,2.083-0.629,2.618c-0.372,0.534-1.256,0.708-2.651,0.523c0-0.931,0-2.42,0-4.468
			c0-2.047-0.013-4.211-0.035-6.49c-0.024-2.279-0.047-4.443-0.07-6.491c-0.023-2.047-0.034-3.513-0.034-4.397
			c0-0.372-0.035-1.116-0.105-2.234c-0.069-1.116-0.139-2.407-0.209-3.873s-0.164-3.024-0.279-4.676
			c-0.116-1.651-0.209-3.199-0.279-4.643c-0.069-1.44-0.128-2.697-0.174-3.769c-0.048-1.07-0.07-1.79-0.07-2.163
			c-5.723,1.35-11.074,2.792-16.054,4.327c-0.604,0-1.163-0.128-1.675-0.384C150.622,416.137,150.366,415.658,150.366,414.96z"/>
		<path d="M183.868,455.442c-0.466-3.723-0.803-7.131-1.012-10.225c-0.21-3.095-0.361-6.004-0.454-8.726
			c-0.094-2.722-0.163-5.315-0.209-7.781c-0.047-2.467-0.104-4.921-0.175-7.364c-0.069-2.442-0.209-4.932-0.419-7.468
			c-0.209-2.535-0.523-5.271-0.942-8.201c0.325-0.464,0.861-0.813,1.606-1.047c0.743-0.231,1.372-0.302,1.884-0.209l2.024,37.689
			c0.186-0.977,0.523-2.291,1.012-3.943c0.488-1.651,1.082-3.431,1.779-5.339c0.698-1.908,1.489-3.827,2.373-5.759
			c0.884-1.93,1.861-3.688,2.932-5.271c1.07-1.58,2.21-2.871,3.42-3.873c1.21-0.999,2.489-1.501,3.839-1.501
			c1.536,0.14,2.908,1.048,4.118,2.723s2.257,3.77,3.141,6.281c0.884,2.514,1.641,5.271,2.269,8.271
			c0.629,3.002,1.14,5.876,1.535,8.62c0.396,2.746,0.687,5.199,0.873,7.363c0.186,2.164,0.302,3.688,0.349,4.572
			c-0.652,0.605-1.222,0.535-1.71-0.21c-0.488-0.743-0.942-1.907-1.36-3.489c-0.419-1.582-0.827-3.466-1.222-5.653
			c-0.396-2.188-0.792-4.467-1.187-6.84c-0.396-2.373-0.827-4.699-1.291-6.98c-0.466-2.279-1.002-4.304-1.605-6.071
			c-0.605-1.769-1.28-3.151-2.024-4.153c-0.744-1-1.605-1.384-2.582-1.151c-1.304,0.745-2.572,2.128-3.805,4.153
			c-1.232,2.023-2.385,4.351-3.454,6.979c-1.071,2.629-2.06,5.374-2.967,8.235c-0.907,2.862-1.664,5.503-2.269,7.922
			c-0.604,2.42-1.059,4.432-1.36,6.038c-0.304,1.604-0.408,2.454-0.314,2.547c-0.187,0.278-0.454,0.464-0.803,0.559
			c-0.349,0.093-0.687,0.127-1.012,0.104c-0.326-0.024-0.594-0.104-0.803-0.245C183.833,455.86,183.774,455.675,183.868,455.442z"/>
		<path d="M216.533,446.788c0-1.582,0.209-3.63,0.628-6.143s1.012-5.152,1.78-7.922c0.768-2.768,1.697-5.524,2.791-8.271
			c1.094-2.745,2.304-5.153,3.63-7.225c1.326-2.069,2.757-3.641,4.292-4.711c1.536-1.07,3.164-1.326,4.886-0.768
			c0.325-0.046,0.803,0.245,1.432,0.873c0.628,0.628,1.127,1.604,1.5,2.932c0.372,1.326,0.488,3,0.35,5.024
			c-0.14,2.023-0.78,4.444-1.92,7.259c-1.141,2.816-2.909,6.015-5.305,9.597c-2.396,3.584-5.688,7.585-9.876,12.006
			c0.837,1.303,1.837,2.07,3.001,2.303c1.163,0.233,2.396,0.116,3.699-0.349s2.605-1.197,3.908-2.199
			c1.303-0.999,2.514-2.059,3.63-3.175c1.117-1.117,2.082-2.222,2.896-3.316c0.813-1.093,1.385-1.965,1.71-2.617
			c0.791,0.698,1.093,1.57,0.907,2.617c-0.187,1.048-0.687,2.153-1.5,3.316c-0.814,1.163-1.861,2.314-3.142,3.454
			c-1.279,1.141-2.617,2.153-4.013,3.036c-1.396,0.885-2.769,1.595-4.118,2.129c-1.35,0.536-2.489,0.757-3.42,0.663
			c-0.978,0-1.932-0.244-2.861-0.733c-0.932-0.488-1.757-1.127-2.478-1.919c-0.723-0.791-1.304-1.697-1.745-2.722
			C216.753,448.906,216.533,447.858,216.533,446.788z M232.586,415.658c-0.977,0-1.989,0.618-3.036,1.851s-2.059,2.792-3.036,4.676
			c-0.977,1.884-1.896,3.955-2.757,6.212c-0.861,2.258-1.594,4.444-2.199,6.562c-0.604,2.117-1.047,4.002-1.325,5.652
			c-0.279,1.652-0.35,2.827-0.21,3.524c0.744,0.047,1.733-0.581,2.967-1.884c1.232-1.302,2.5-2.967,3.804-4.991
			c1.303-2.023,2.535-4.233,3.699-6.63c1.162-2.396,2.082-4.664,2.757-6.805c0.674-2.14,1-3.967,0.978-5.479
			C234.202,416.835,233.656,415.938,232.586,415.658z"/>
		<path d="M274.324,455.582c-1.676-0.14-3.119-0.919-4.328-2.339c-1.21-1.419-2.163-3.268-2.861-5.549
			c-0.698-2.278-1.164-4.851-1.396-7.712c-0.232-2.862-0.208-5.78,0.07-8.759c0.279-2.979,0.813-5.898,1.605-8.76
			c0.791-2.861,1.825-5.421,3.105-7.678c1.28-2.256,2.814-4.094,4.607-5.514c1.79-1.419,3.849-2.175,6.176-2.269
			c2.001,0.187,3.666,1.047,4.991,2.582c1.326,1.536,2.338,3.49,3.036,5.863c0.697,2.373,1.105,5.037,1.222,7.991
			c0.115,2.956-0.035,5.957-0.454,9.004c-0.418,3.049-1.082,6.003-1.989,8.865c-0.907,2.86-2.036,5.386-3.385,7.572
			c-1.35,2.187-2.897,3.897-4.642,5.13C278.337,455.244,276.417,455.768,274.324,455.582z M280.815,410.214
			c-1.396,0.048-2.713,0.629-3.944,1.746c-1.233,1.116-2.338,2.582-3.315,4.396c-0.978,1.815-1.826,3.874-2.547,6.178
			c-0.723,2.303-1.268,4.688-1.641,7.153c-0.372,2.467-0.57,4.91-0.594,7.329s0.164,4.641,0.559,6.665
			c0.396,2.024,1,3.759,1.815,5.2c0.813,1.443,1.896,2.42,3.245,2.931c1.629,0.14,3.128-0.289,4.501-1.291
			c1.373-0.999,2.606-2.372,3.7-4.118c1.092-1.744,2.012-3.779,2.757-6.106c0.743-2.327,1.302-4.734,1.676-7.225
			c0.371-2.488,0.546-4.978,0.523-7.468c-0.024-2.488-0.28-4.781-0.769-6.875s-1.222-3.896-2.199-5.409
			C283.606,411.809,282.35,410.772,280.815,410.214z"/>
		<path d="M297.705,434.991c-0.047-0.93,0.035-2.162,0.245-3.698c0.209-1.535,0.546-3.176,1.011-4.921
			c0.466-1.745,1.059-3.489,1.78-5.235c0.722-1.744,1.56-3.314,2.514-4.711c0.953-1.396,2.012-2.512,3.176-3.35
			c1.162-0.838,2.442-1.209,3.839-1.116c1.628,0,2.977,0.523,4.047,1.569c1.071,1.048,1.921,2.304,2.549,3.77
			s1.092,2.99,1.396,4.571c0.302,1.583,0.523,2.886,0.663,3.909c0.141,0.652,0.231,1.722,0.278,3.21
			c0.047,1.49,0.094,3.177,0.141,5.061c0.045,1.885,0.104,3.862,0.175,5.933c0.069,2.07,0.162,4.025,0.279,5.863
			c0.114,1.838,0.267,3.443,0.453,4.815c0.186,1.373,0.441,2.315,0.769,2.827c0.045,0.418-0.141,0.826-0.56,1.221
			c-0.418,0.396-0.907,0.698-1.465,0.908c-0.559,0.21-1.095,0.255-1.605,0.14c-0.513-0.117-0.839-0.5-0.978-1.152
			c-0.513-2.094-0.838-4.536-0.977-7.328c-0.141-2.792-0.234-5.665-0.279-8.62c-0.048-2.954-0.083-5.839-0.105-8.654
			c-0.024-2.814-0.174-5.328-0.454-7.538c-0.279-2.209-0.756-3.955-1.431-5.235c-0.675-1.278-1.639-1.849-2.896-1.709
			c-1.396,0.093-2.642,0.745-3.734,1.954c-1.094,1.21-2.059,2.781-2.896,4.711c-0.838,1.931-1.548,4.118-2.129,6.562
			c-0.582,2.442-1.082,4.933-1.501,7.468c-0.418,2.536-0.768,4.99-1.048,7.363c-0.278,2.373-0.5,4.467-0.661,6.281
			c-0.164,1.815-0.304,3.224-0.42,4.223c-0.117,1.002-0.222,1.408-0.313,1.222c-0.14,0-0.396,0.012-0.768,0.034
			c-0.373,0.024-0.745,0.024-1.117,0c-0.373-0.022-0.698-0.093-0.977-0.208c-0.28-0.116-0.419-0.338-0.419-0.663v-34.34
			c0-1.069,0.267-2.06,0.803-2.967c0.534-0.908,1.406-1.361,2.616-1.361V434.991z"/>
		<path d="M324.438,446.788c0-1.582,0.209-3.63,0.628-6.143s1.012-5.152,1.779-7.922c0.769-2.768,1.699-5.524,2.792-8.271
			c1.094-2.745,2.304-5.153,3.63-7.225c1.325-2.069,2.756-3.641,4.293-4.711c1.535-1.07,3.163-1.326,4.886-0.768
			c0.323-0.046,0.803,0.245,1.431,0.873s1.128,1.604,1.501,2.932c0.37,1.326,0.487,3,0.349,5.024
			c-0.141,2.023-0.781,4.444-1.92,7.259c-1.142,2.816-2.908,6.015-5.306,9.597c-2.396,3.584-5.688,7.585-9.875,12.006
			c0.837,1.303,1.837,2.07,3.001,2.303c1.163,0.233,2.396,0.116,3.699-0.349c1.302-0.465,2.604-1.197,3.909-2.199
			c1.301-0.999,2.513-2.059,3.628-3.175c1.117-1.117,2.082-2.222,2.897-3.316c0.813-1.093,1.384-1.965,1.709-2.617
			c0.792,0.698,1.095,1.57,0.909,2.617c-0.188,1.048-0.688,2.153-1.501,3.316c-0.815,1.163-1.862,2.314-3.142,3.454
			c-1.279,1.141-2.616,2.153-4.013,3.036c-1.396,0.885-2.771,1.595-4.117,2.129c-1.352,0.536-2.491,0.757-3.422,0.663
			c-0.977,0-1.931-0.244-2.86-0.733c-0.932-0.488-1.757-1.127-2.479-1.919c-0.722-0.791-1.303-1.697-1.744-2.722
			C324.657,448.906,324.438,447.858,324.438,446.788z M340.491,415.658c-0.978,0-1.991,0.618-3.036,1.851
			c-1.048,1.232-2.06,2.792-3.037,4.676c-0.977,1.884-1.896,3.955-2.758,6.212c-0.86,2.258-1.594,4.444-2.198,6.562
			c-0.605,2.117-1.046,4.002-1.325,5.652c-0.279,1.652-0.349,2.827-0.21,3.524c0.745,0.047,1.732-0.581,2.967-1.884
			c1.231-1.302,2.5-2.967,3.804-4.991c1.302-2.023,2.536-4.233,3.698-6.63c1.163-2.396,2.082-4.664,2.758-6.805
			c0.675-2.14,1-3.967,0.977-5.479S341.56,415.938,340.491,415.658z"/>
	</g>
</g>
</svg>
