<?xml version="1.0" encoding="utf-8"?>
<!-- Generator: Adobe Illustrator 16.0.3, SVG Export Plug-In . SVG Version: 6.00 Build 0)  -->
<!DOCTYPE svg PUBLIC "-//W3C//DTD SVG 1.1//EN" "http://www.w3.org/Graphics/SVG/1.1/DTD/svg11.dtd">
<svg version="1.1" id="Layer_1" xmlns="http://www.w3.org/2000/svg" xmlns:xlink="http://www.w3.org/1999/xlink" x="0px" y="0px"
	 width="500px" height="500px" viewBox="0 0 500 500" enable-background="new 0 0 500 500" xml:space="preserve">
<g>
	<g>
		<path d="M406.69,167.481c-16.656-71.128-80.486-124.1-156.69-124.1c-76.214,0-140.042,52.971-156.698,124.1
			c-2.776,11.838-4.236,24.156-4.236,36.833c0,88.892,72.045,160.954,160.935,160.954c88.891,0,160.935-72.063,160.935-160.954
			C410.935,191.637,409.458,179.319,406.69,167.481z"/>
		<g>
			<path fill="#D81E05" d="M276.971,326.491c0,14.155-11.479,25.643-25.642,25.643c-14.172,0-25.641-11.487-25.641-25.643
				c0-14.162,11.469-25.649,25.641-25.649C265.492,300.842,276.971,312.329,276.971,326.491z"/>
			<g>
				<path fill="#D81E05" d="M276.971,260.611c0,14.164-11.479,25.643-25.642,25.643c-14.172,0-25.641-11.479-25.641-25.643
					c0-14.161,11.469-25.649,25.641-25.649C265.492,234.962,276.971,246.45,276.971,260.611z"/>
				<path fill="#D81E05" d="M369.818,232.757c-14.161,0-25.648-11.478-25.648-25.632c0-14.172,11.487-25.65,25.648-25.65
					c14.165,0,25.649,11.479,25.649,25.65C395.469,221.279,383.983,232.757,369.818,232.757z"/>
				<path fill="#D81E05" d="M130.182,232.757c-14.163,0-25.649-11.478-25.649-25.632c0-14.172,11.486-25.65,25.649-25.65
					c14.164,0,25.641,11.479,25.641,25.65C155.822,221.279,144.346,232.757,130.182,232.757z"/>
				<path fill="#D81E05" d="M208.388,232.757c-14.163,0-25.633-11.478-25.633-25.632c0-14.172,11.47-25.65,25.633-25.65
					c14.174,0,25.65,11.479,25.65,25.65C234.038,221.279,222.562,232.757,208.388,232.757z"/>
				<path fill="#D81E05" d="M291.604,232.757c-14.164,0-25.643-11.478-25.643-25.632c0-14.172,11.479-25.65,25.643-25.65
					s25.659,11.479,25.659,25.65C317.264,221.279,305.768,232.757,291.604,232.757z"/>
				<path fill="#D81E05" d="M354.243,272.507c10.013,10.019,10.013,26.259,0,36.279c-10.021,10.001-26.259,10.001-36.26,0
					c-10.02-10.021-10.02-26.261-0.01-36.279C327.984,262.495,344.224,262.495,354.243,272.507z"/>
				<path fill="#D81E05" d="M147.27,273.65c10.021-10.021,26.25-10.021,36.262,0c10.021,10.021,10.021,26.261,0,36.271
					c-10.012,10.021-26.241,10.001-36.262,0C137.249,299.911,137.249,283.671,147.27,273.65z"/>
			</g>
		</g>
	</g>
	<g>
		<path d="M186.284,395.423h0.17c4.514,1.477,7.976,4.371,10.389,8.687c3.633,7.407,5.45,15.016,5.45,22.82v0.853
			c0,11.127-4.031,20.21-12.092,27.249c-1.022,0.341-1.703,0.511-2.044,0.511c-0.313,0-0.54-0.907-0.682-2.725l0.171-0.342
			c-0.341-2.61-0.568-6.301-0.682-11.069h0.171l-0.171-0.34v-0.172c0-4.483,0.057-8.57,0.171-12.262L186.284,395.423z
			 M188.157,397.978v0.171c0.113,12.83,0.341,22.936,0.682,30.313c-0.114,3.038-0.171,6.16-0.171,9.367v2.044
			c0,4.315,0.227,8.855,0.682,13.625c2.64-2.271,5.08-5.223,7.323-8.856c2.611-5.817,3.917-11.268,3.917-16.35v-1.703
			c0-7.124-1.761-14.391-5.279-21.8C192.783,400.986,190.399,398.716,188.157,397.978z"/>
		<path d="M218.302,398.275h0.17c1.618,0.737,2.994,2.738,4.131,6.003c3.15,9.766,5.477,22.239,6.982,37.426
			c0.993,4.938,1.49,9.268,1.49,12.985c-0.143,0.368-0.526,0.554-1.15,0.554c-0.454-0.879-1.135-5.394-2.043-13.539
			c-0.256-0.88-0.824-4.643-1.703-11.283l-1.32-0.17c-6.131,0.568-9.196,1.191-9.196,1.873v6.6l-1.149,15.796
			c0.255,0.398,0.383,0.768,0.383,1.106c0,0.199-0.256,0.455-0.767,0.767c-0.994,0-1.49-0.623-1.49-1.873
			c0.88-11.979,1.32-19.188,1.32-21.629c-0.114-1.561-0.171-3.136-0.171-4.727c0.057-8.175,0.738-16.817,2.044-25.929
			C216.371,399.595,217.194,398.275,218.302,398.275z M218.302,400.532c-1.646,6.357-2.47,14.576-2.47,24.65
			c-0.113,0-0.17,1.378-0.17,4.131v0.554c3.576-0.993,7.025-1.49,10.346-1.49v-0.213c0-3.462-1.888-11.666-5.662-24.609
			C219.521,401.767,218.841,400.76,218.302,400.532z"/>
		<path d="M243.891,397.381c0.681,0.229,4.328,9.324,10.942,27.292h0.468c0-1.22,2.811-9.99,8.432-26.313h0.511l0.426,0.809
			l0.043,1.703c-0.313,10.162-0.469,18.749-0.469,25.76c0,2.697,0.495,12.447,1.489,29.25l-1.021,0.511
			c-0.653,0-1.308-9.253-1.959-27.76v-20.82h-0.511c-4.116,12.803-6.43,19.401-6.94,19.799c-0.993-0.057-4.13-7.493-9.409-22.311
			h-0.511v0.511l2.47,49.092l-0.979,0.511c-0.653,0-0.979-0.34-0.979-1.021c-0.994-29.688-1.987-48.521-2.98-56.5L243.891,397.381z"
			/>
		<path d="M278.506,398.488h0.342c0.793,0,1.19,3.009,1.19,9.025v2.214c0,2.215-0.34,7.948-1.021,17.201
			c0,0.454,0.057,0.909,0.17,1.362c-0.113,5.934-0.17,10.645-0.17,14.136v11.07c0,0.228,0.112,0.795,0.34,1.702
			c-0.143,0.796-0.369,1.191-0.682,1.191h-0.681c-0.455,0-0.683-1.531-0.683-4.598c0-19.698,0.342-33.267,1.021-40.704v-4.769
			c0-2.641-0.17-5.024-0.511-7.153C277.824,398.999,278.051,398.772,278.506,398.488z"/>
		<path d="M298.688,398.275h0.17c1.619,0.737,2.994,2.738,4.131,6.003c3.149,9.766,5.478,22.239,6.981,37.426
			c0.993,4.938,1.49,9.268,1.49,12.985c-0.143,0.368-0.525,0.554-1.149,0.554c-0.453-0.879-1.136-5.394-2.044-13.539
			c-0.255-0.88-0.822-4.643-1.702-11.283l-1.319-0.17c-6.132,0.568-9.196,1.191-9.196,1.873v6.6l-1.15,15.796
			c0.256,0.398,0.385,0.768,0.385,1.106c0,0.199-0.256,0.455-0.768,0.767c-0.994,0-1.49-0.623-1.49-1.873
			c0.879-11.979,1.32-19.188,1.32-21.629c-0.113-1.561-0.171-3.136-0.171-4.727c0.058-8.175,0.737-16.817,2.044-25.929
			C296.757,399.595,297.58,398.275,298.688,398.275z M298.688,400.532c-1.646,6.357-2.47,14.576-2.47,24.65
			c-0.114,0-0.17,1.378-0.17,4.131v0.554c3.576-0.993,7.024-1.49,10.346-1.49v-0.213c0-3.462-1.889-11.666-5.663-24.609
			C299.907,401.767,299.227,400.76,298.688,400.532z"/>
	</g>
</g>
<path fill="#D81E05" d="M406.69,168.583v-1.103c-0.228-0.97-0.467-1.935-0.711-2.897H94.013c-0.245,0.963-0.484,1.928-0.711,2.897
	c-0.086,0.366-0.159,0.736-0.242,1.103H406.69z"/>
</svg>
