<?xml version="1.0" encoding="utf-8"?>
<!-- Generator: Adobe Illustrator 16.0.3, SVG Export Plug-In . SVG Version: 6.00 Build 0)  -->
<!DOCTYPE svg PUBLIC "-//W3C//DTD SVG 1.1//EN" "http://www.w3.org/Graphics/SVG/1.1/DTD/svg11.dtd">
<svg version="1.1" id="Layer_1" xmlns="http://www.w3.org/2000/svg" xmlns:xlink="http://www.w3.org/1999/xlink" x="0px" y="0px"
	 width="500px" height="500px" viewBox="0 0 500 500" enable-background="new 0 0 500 500" xml:space="preserve">
<g>
	<g>
		<g>
			<path fill="#221F20" d="M250,42.082c-76.215,0-140.043,52.971-156.699,124.1h313.389C390.033,95.053,326.205,42.082,250,42.082z"
				/>
			<path fill="#D81E05" d="M93.301,166.182c-2.775,11.838-4.236,24.156-4.236,36.833c0,88.891,72.045,160.954,160.936,160.954
				s160.936-72.063,160.936-160.954c0-12.677-1.479-24.995-4.246-36.833H93.301z"/>
		</g>
		<g>
			<g>
				<path fill="#221F20" d="M354.244,214.729c10.012,10.019,10.012,26.258,0,36.279c-10.021,10.002-26.26,10.002-36.262,0
					c-10.018-10.021-10.018-26.261-0.008-36.279C327.984,204.718,344.223,204.718,354.244,214.729z"/>
				<path fill="#221F20" d="M147.27,215.873c10.02-10.021,26.25-10.021,36.262,0c10.02,10.021,10.02,26.261,0,36.272
					c-10.012,10.02-26.242,10.001-36.262,0C137.248,242.133,137.248,225.893,147.27,215.873z"/>
			</g>
		</g>
	</g>
	<g>
		<path d="M189.501,412.69c0.217-0.762,0.597-1.227,1.144-1.391c0.544-0.163,0.926-0.081,1.145,0.246l0.491-1.472
			c0.434-0.98,1.144-1.742,2.125-2.289c0.98-0.544,2.016-0.899,3.106-1.063c1.089-0.164,2.098-0.189,3.025-0.082
			c0.925,0.11,1.66,0.22,2.206,0.327c1.525,0.547,3.188,1.336,4.987,2.37c1.799,1.038,3.404,2.29,4.822,3.761
			c1.416,1.472,2.479,3.245,3.189,5.313c0.707,2.072,0.843,4.471,0.408,7.193c-0.547,2.29-1.691,4.471-3.434,6.54
			c-1.744,2.072-3.924,3.87-6.54,5.396c-4.034,2.29-8.121,3.98-12.262,5.069c0,0.326,0.082,1.172,0.245,2.534
			c0.163,1.363,0.327,2.807,0.49,4.332c0.164,1.527,0.299,2.889,0.408,4.088c0.108,1.2,0.164,1.854,0.164,1.961
			c-0.22,0.544-0.71,0.872-1.472,0.981c-0.764,0.107-1.254-0.109-1.471-0.654c-0.11-0.653-0.245-1.553-0.409-2.697
			s-0.327-2.343-0.49-3.597c-0.163-1.252-0.327-2.452-0.491-3.597c-0.163-1.146-0.245-2.098-0.245-2.861
			c-0.98,0.109-1.799,0.056-2.452-0.164c-0.653-0.217-1.036-0.653-1.145-1.308c-0.22-0.871,0.082-1.661,0.899-2.371
			c0.818-0.707,1.554-1.169,2.207-1.39c-0.327-4.141-0.546-8.338-0.653-12.589C189.391,421.029,189.391,416.834,189.501,412.69z
			 M189.827,440.484c0.218,0,0.327,0.027,0.327,0.082c0,0.057,0.055,0.082,0.164,0.082c0-0.328-0.057-0.545-0.164-0.654
			L189.827,440.484z M194.568,411.056c-0.764,0.981-1.254,2.534-1.471,4.659c-0.22,2.125-0.327,4.552-0.327,7.275
			c0,2.727,0.107,5.588,0.327,8.584c0.217,2.998,0.434,5.859,0.653,8.583c3.051-0.544,6.104-1.635,9.156-3.27
			c3.051-1.635,5.584-3.569,7.602-5.805c2.017-2.232,3.215-4.686,3.599-7.356c0.38-2.67-0.573-5.367-2.861-8.094
			c-0.547-0.654-1.5-1.524-2.861-2.616c-1.365-1.088-2.89-2.015-4.578-2.779c-1.691-0.761-3.38-1.169-5.068-1.226
			C197.047,408.958,195.657,409.64,194.568,411.056z"/>
		<path d="M214.844,438.85c0.653-1.853,1.605-3.786,2.861-5.805c1.251-2.015,2.533-3.458,3.841-4.332
			c-0.22-0.544,0.082-1.198,0.899-1.962c0.818-0.762,1.443-0.817,1.88-0.164c1.198,1.201,2.151,2.509,2.861,3.924
			c0.708,1.418,1.334,2.943,1.88,4.578c0.872,3.053,1.117,5.641,0.736,7.766c-0.383,2.126-1.146,3.789-2.288,4.987
			c-1.146,1.2-2.536,1.908-4.171,2.126c-1.635,0.219-3.27,0-4.904-0.655c-1.635-0.544-2.861-1.716-3.679-3.515
			S213.969,441.686,214.844,438.85z M218.931,446.533c2.723,1.309,4.767,1.447,6.132,0.409c1.359-1.035,2.149-2.588,2.369-4.659
			c0.217-2.069,0-4.251-0.654-6.54c-0.653-2.289-1.581-4.032-2.778-5.232c-1.201,0.328-2.398,1.227-3.597,2.698
			c-1.201,1.471-2.154,3.08-2.861,4.823c-0.711,1.744-1.01,3.434-0.899,5.068C216.749,444.735,217.513,445.88,218.931,446.533z"/>
		<path d="M237.241,389.801c0.217-0.653,0.653-1.116,1.308-1.391c0.655-0.27,1.09,0.029,1.309,0.9
			c-0.11,10.247-0.303,20.383-0.572,30.41c-0.272,10.029-0.465,20.166-0.573,30.409c-0.108,0.655-0.546,1.12-1.307,1.391
			c-0.765,0.273-1.146-0.082-1.146-1.063c0.108-10.244,0.271-20.382,0.492-30.41C236.969,410.021,237.132,399.938,237.241,389.801z"
			/>
		<path d="M249.992,426.261c0.217-0.544,0.654-0.953,1.308-1.227c0.653-0.271,1.035,0.027,1.145,0.899
			c-0.109,4.143-0.273,8.202-0.491,12.181c-0.219,3.979-0.383,8.039-0.489,12.18c-0.22,0.765-0.684,1.283-1.39,1.554
			c-0.711,0.273-1.063-0.082-1.063-1.063c0.106-4.142,0.271-8.229,0.489-12.263C249.719,434.492,249.883,430.404,249.992,426.261z
			 M252.281,409.42c0.435,0.548,0.352,1.145-0.246,1.799c-0.6,0.654-1.172,0.764-1.717,0.327c-0.653-0.435-0.653-1.007,0-1.717
			C250.973,409.121,251.627,408.986,252.281,409.42z"/>
		<path d="M259.474,431.492c-0.98,0-1.336-0.381-1.063-1.145c0.271-0.761,0.736-1.252,1.391-1.472c2.18,0,4.305-0.081,6.376-0.245
			c2.069-0.164,4.195-0.353,6.377-0.572c0.217-5.559,0.408-11.143,0.571-16.759c0.164-5.611,0.354-11.253,0.572-16.921
			c0.218-0.654,0.654-1.089,1.309-1.309c0.654-0.217,1.089,0.11,1.309,0.981c-0.22,5.668-0.466,11.281-0.737,16.84
			c-0.272,5.56-0.408,11.117-0.408,16.677c2.18-0.217,4.276-0.463,6.295-0.736c2.016-0.271,4.112-0.515,6.295-0.735
			c0.871,0.109,1.198,0.49,0.981,1.145c-0.221,0.654-0.654,1.091-1.31,1.308c-2.071,0.221-4.115,0.491-6.131,0.817
			c-2.019,0.327-4.062,0.601-6.131,0.817c-0.108,0.765-0.191,2.126-0.245,4.088c-0.056,1.962-0.081,4.169-0.081,6.622
			c0,2.452,0.106,5.014,0.326,7.684c0.217,2.673,0.545,5.043,0.981,7.112c-0.109,0.654-0.49,1.17-1.145,1.554
			c-0.654,0.381-1.145,0.135-1.472-0.736c-0.437-2.179-0.764-4.604-0.98-7.275c-0.221-2.669-0.327-5.258-0.327-7.766
			c0-2.507,0.025-4.768,0.081-6.786c0.054-2.015,0.136-3.404,0.246-4.169c-2.182,0.221-4.361,0.438-6.54,0.654
			C263.833,431.385,261.652,431.492,259.474,431.492z"/>
		<path d="M307.376,431.492c0.218,0.547,0.025,1.091-0.571,1.635c-0.601,0.547-1.173,0.547-1.717,0
			c0.434,2.071,0.981,4.252,1.635,6.54s1.309,4.496,1.962,6.622c0.654,2.125,1.361,4.033,2.125,5.722
			c0.762,1.691,1.472,2.971,2.126,3.842c0.217,0.654,0.025,1.227-0.572,1.717c-0.601,0.491-1.172,0.463-1.717-0.082
			c-1.854-2.723-3.106-5.559-3.76-8.501c-0.655-2.943-1.365-5.993-2.126-9.155l-0.817-2.78c-0.547,2.943-1.582,5.56-3.107,7.848
			c-0.98,1.309-2.206,2.563-3.679,3.761c-1.471,1.2-2.941,1.99-4.414,2.37c-1.471,0.384-2.807,0.192-4.005-0.571
			c-1.201-0.762-2.019-2.397-2.453-4.905c-0.326-2.289-0.109-4.604,0.654-6.948c0.762-2.343,1.881-4.469,3.352-6.377
			c1.473-1.905,3.16-3.487,5.068-4.741c1.906-1.251,3.732-1.987,5.477-2.207v-0.653c0.218-0.544,0.573-0.926,1.063-1.145
			c0.491-0.218,0.953-0.055,1.39,0.489l0.327,1.963C305.469,426.697,306.723,428.549,307.376,431.492z M298.875,443.918
			c1.525-2.396,2.396-4.959,2.616-7.685c0.217-2.723,0.163-5.449-0.164-8.175c-1.309-0.218-2.779,0.138-4.414,1.063
			c-1.636,0.927-3.106,2.206-4.414,3.841c-1.309,1.635-2.346,3.462-3.107,5.478c-0.763,2.019-0.98,3.898-0.653,5.641
			c0.326,1.855,0.87,3.082,1.635,3.679c0.761,0.601,1.635,0.817,2.616,0.654c0.98-0.164,1.987-0.654,3.024-1.472
			C297.048,446.125,298.001,445.119,298.875,443.918z"/>
	</g>
</g>
</svg>
