<?xml version="1.0" encoding="utf-8"?>
<!-- Generator: Adobe Illustrator 16.0.3, SVG Export Plug-In . SVG Version: 6.00 Build 0)  -->
<!DOCTYPE svg PUBLIC "-//W3C//DTD SVG 1.1//EN" "http://www.w3.org/Graphics/SVG/1.1/DTD/svg11.dtd">
<svg version="1.1" id="Layer_1" xmlns="http://www.w3.org/2000/svg" xmlns:xlink="http://www.w3.org/1999/xlink" x="0px" y="0px"
	 width="500px" height="500px" viewBox="0 0 500 500" enable-background="new 0 0 500 500" xml:space="preserve">
<g>
	<g>
		<path fill="#221F20" d="M7.634,249.999c0,133.867,108.501,242.363,242.362,242.363c133.854,0,242.369-108.496,242.369-242.363
			c0-133.839-108.516-242.361-242.369-242.361C116.136,7.638,7.634,116.16,7.634,249.999z"/>
		<g>
			<g>
				<path fill="#FFFFFF" d="M84.99,328.007V175.854h20.195v15.909c6.108-6.878,12.014-11.894,17.731-15.047
					c5.739-3.141,11.839-4.726,18.336-4.726c6.585,0,12.157,1.653,16.744,4.96c4.584,3.279,8.399,8.394,11.45,15.369
					c6.959-7.254,13.337-12.45,19.105-15.604c5.779-3.141,11.818-4.726,18.112-4.726c9.922,0,17.292,3.224,22.114,9.657
					c4.816,6.462,7.227,16.355,7.227,29.694v116.664H215.39V218.082c0-10.672-1.236-18.063-3.717-22.107
					c-2.48-4.044-6.773-6.086-12.88-6.086c-4.962,0-9.804,1.667-14.521,5.003c-4.725,3.349-9.289,8.364-13.688,15.048v118.067
					h-20.461V218.082c0-10.672-1.263-18.063-3.793-22.107c-2.528-4.044-6.843-6.086-12.95-6.086c-4.959,0-9.781,1.667-14.464,5.003
					c-4.675,3.349-9.262,8.364-13.729,15.048v118.067H84.99z"/>
			</g>
			<g>
				<path fill="#FFFFFF" d="M415.002,328.007h-152.16v-20.162h15.889c-6.871-6.113-11.873-12.032-15.02-17.757
					c-3.16-5.74-4.732-11.825-4.732-18.328c0-6.572,1.641-12.159,4.939-16.743c3.287-4.572,8.43-8.38,15.389-11.45
					c-7.258-6.975-12.449-13.341-15.596-19.092c-3.16-5.781-4.732-11.812-4.732-18.106c0-9.948,3.225-17.313,9.664-22.136
					c6.443-4.82,16.336-7.211,29.697-7.211h116.662v20.592H305.078c-10.693,0-18.066,1.266-22.123,3.739
					c-4.057,2.486-6.086,6.767-6.086,12.867c0,4.96,1.676,9.81,5.025,14.534c3.334,4.725,8.338,9.269,15.02,13.672h118.088v20.469
					H305.078c-10.693,0-18.066,1.266-22.123,3.794c-4.057,2.527-6.086,6.85-6.086,12.965c0,4.96,1.676,9.781,5.025,14.45
					c3.334,4.653,8.338,9.253,15.02,13.741h118.088V328.007z"/>
			</g>
		</g>
	</g>
	<g>
		<g>
			<path fill-rule="evenodd" clip-rule="evenodd" fill="#FFFFFF" d="M90.909,381.45c-1.216,1.041-2.411,1.625-3.439,1.903
				c-1.438,0.375-2.528-0.028-3.237-1.375c0-0.378,0.056-1.225,0.056-1.6c0.021-0.585,0.833-3.182,0.798-4.726
				c-0.048-1.193-1.313-1.013-0.923-3c0.277-1.516,1.702-1.847,2.299-3.628c0.237-0.693,0.612-1.778,0.806-3.112
				c0.153-0.972,0.153-2.084,0.298-3.194c0.112-1.084,0.327-2.155,0.431-3.182c0.117-1.196,0.153-2.321,0.222-3.239
				c0.117-1.207,0.048-2.639,0.222-3.807c0.195-1.362,0.737-2.322,2.551-1.973c1.097,0.207,1.437,1.057,1.437,2.139
				c0.015,0.834-0.187,1.821-0.444,2.78c-0.278,1.028-0.688,1.987-0.868,2.71c-0.278,1.125-0.521,2.084-0.737,2.972
				c-0.242,1.057-0.452,1.987-0.639,3.016c-0.188,0.919-0.236,1.878-0.425,3.031c1.251-0.641,2.481-0.71,3.641-0.612
				c1.322,0.112,2.53,0.556,3.455,1.306c1.048,0.848,1.764,1.973,1.917,3.141c0.139,1.141,0.021,2.266-0.409,3.348
				c-0.411,0.975-1.099,1.891-1.862,2.78c-0.716,0.848-1.605,1.541-2.48,2.264C92.708,380.116,91.847,380.866,90.909,381.45z
				 M89.04,378.601c0.75-0.625,1.66-1.194,2.48-1.891c0.82-0.707,1.598-1.473,2.126-2.362c0.492-0.875,0.806-1.973,0.694-3.141
				c-0.972-0.541-2.181-0.472-3.174-0.041c-0.931,0.391-1.8,1.141-2.453,1.987c-0.681,0.862-1.035,1.919-1.07,2.875
				C87.609,377.06,87.962,377.976,89.04,378.601z"/>
		</g>
		<g>
			<path fill-rule="evenodd" clip-rule="evenodd" fill="#FFFFFF" d="M203.238,357.104c-0.32-0.429-0.833-0.638-1.111-1.125
				c-0.237-0.472-0.354-1.013-0.334-1.528c0.077-1.141,1.042-2.056,2.147-2.237c1.633-0.291,2.967,0.932,3.626,2.266
				c0.48,1,1.147,2.696,0.48,3.794c-0.291,0.459-0.987,0.834-1.549,0.862C204.579,359.244,204.135,358.354,203.238,357.104z"/>
		</g>
		<g>
			<path fill-rule="evenodd" clip-rule="evenodd" fill="#FFFFFF" d="M151.235,367.541c-0.75,0.581-1.466,1.472-2.202,2.263
				c-0.681,0.725-1.348,1.503-2.001,2.294c-0.667,0.818-1.383,1.568-2.022,2.321c-0.715,0.834-1.5,1.541-2.168,2.153
				c-0.958,0.859-1.791,1.513-2.597,1.472c-0.931-0.513-1.578-1.362-1.973-2.391c-0.355-0.916-0.376-2.013-0.563-3.084
				c-0.189-1.041-0.424-2.153-0.689-3.112c-1.089,0.375-1.911,1.709-2.445,3.112c-0.527,1.378-0.847,2.891-1.174,3.781
				c-0.175,0.443-0.583,1.459-1.078,2.584c-0.375,0.834-0.805,1.722-1.306,2.444c-0.694,0.946-1.396,1.502-2.202,1.196
				c-1.681-0.653-2.383-1.571-2.306-2.641c0.069-1.057,0.834-2.266,1.619-3.362c0.855-1.182,1.8-2.253,2.23-2.975
				c0.591-0.985,1.195-2.223,1.709-3.473c0.611-1.403,1.181-2.753,1.604-3.503c0.361-0.653,1.133-1.362,1.834-2.362
				c0.973-1.359,1.966-2.972,2.835-2.932c1.403,0.069,2.035,1.153,2.278,2.598c0.202,1.128,0.174,2.462,0.285,3.725
				c0.103,1.432,0.327,2.71,1.035,3.487c0.445,0.75,1.328-0.068,2.481-1.597c0.611-0.794,1.327-1.75,2.036-2.753
				c0.667-0.916,1.264-1.944,1.966-2.832c0.771-0.959,1.641-1.753,2.439-2.391c0.653-0.556,1.681-1.209,2.689-1.277
				c0.979-0.057,1.896,0.415,2.278,1.652c0.237,0.791,0.222,1.807,0.117,2.944c-0.082,0.919-0.138,1.919-0.311,2.947
				c-0.167,0.943-0.542,1.902-0.695,2.89c-0.159,0.973-0.292,1.988-0.361,2.944c-0.069,1.031,0.063,2.031,0.188,2.975
				c0.139,1.141,0.869,2.988,0.82,3.835c-0.07,1.35-0.612,2.293-1.334,2.906c-0.911,0.734-2.001,0.818-2.975,0.152
				c-0.722-0.487-1.306-1.35-1.521-2.753c-0.194-1.222,0.423-1.693,0.632-3.043c0.166-1.057,0.138-2.223,0.187-3.391
				c0.028-1.153,0.188-2.291,0.237-3.376C150.86,369.707,150.95,368.444,151.235,367.541z"/>
		</g>
		<g>
			<path fill-rule="evenodd" clip-rule="evenodd" fill="#FFFFFF" d="M175.122,368.472c0.236,1-0.022,2.25-0.424,3.653
				c-0.327,1.182-0.806,2.447-0.702,3.697c0.075,1.138,0.68,2.153,1.806,3.153c1.099,0.112,1.917,0.14,2.675-0.069
				c0.972-0.265,1.778-0.584,2.516-1.084c1.056-0.222,0.867,0.5,1.521,0.641c0.145-0.96,0.215-1.947,0.257-3.003
				c0.028-1.028,0.25-2.069,0.306-3.085c0.049-1.068-0.021-2.125,0.166-3.056c0.229-1.125,0.722-1.947,1.334-2.669
				c1.798-0.847,2.667,0.528,3.37,1.544c0.277,1.402-0.995,2.152-0.459,2.972c0.646-0.153,1.299-0.972,2.049-1.766
				c0.633-0.722,1.37-1.375,2.058-1.778c1.077-0.068,2.091,0.169,2.994,0.473c1.174,0.377,2.036,0.931,2.362,1.684
				c0.327,0.791,0.166,1.666-1.076,2.569c-1.391,0.125-2.669-0.182-3.252-0.891c-0.501,0.168-1.779,1.362-2.856,2.74
				c-0.875,1.125-1.709,2.388-2.008,3.375c-0.396,1.446-0.702,2.625-1.028,3.557c-0.557,1.571-1.057,2.459-2.342,2.459
				c-1.006-0.028-1.618-0.568-1.931-1.403c-0.243-0.706-0.271-1.472-0.458-2.318c-0.841,0.693-1.66,1.263-2.55,1.734
				c-0.993,0.516-2.084,0.653-3.05,0.793c-1.104,0.139-2.203,0.278-3.147-0.193c-0.847-0.446-1.661-1.209-2.272-2.266
				c-0.445-0.793-0.715-1.807-0.986-3.003c-0.814,0.571-1.584,1.196-2.266,2.003c-0.646,0.791-1.146,1.722-1.806,2.5
				c-0.661,0.819-1.354,1.612-2.195,2.125c-0.82,0.544-1.828,0.641-2.96,0.653c-1.368,0.028-2.14-0.234-2.613-0.791
				c-0.583-0.681-0.597-1.597-0.311-2.709c0.222-0.875,0.569-1.807,1.063-2.696c0.494-0.916,1.126-1.71,1.653-2.403
				c0.521-0.71,1.154-1.528,1.883-2.348c0.653-0.696,1.369-1.431,2.106-2.128c0.722-0.722,1.306-1.597,2.069-2.222
				c0.827-0.682,1.709-1.237,2.481-1.737c1.076-0.653,2.09-1.069,2.84-1.028C173.593,366.206,174.35,367.554,175.122,368.472z
				 M162.943,379.726c0.875-0.638,1.625-1.459,2.375-2.182c0.757-0.75,1.577-1.443,2.223-2.291c0.631-0.834,1.014-1.85,1.557-2.78
				c-0.035-0.332,0.021-0.585-0.445-0.5c-0.688,0.54-1.694,1.265-2.597,2.181c-0.806,0.819-1.475,1.85-2.12,2.669
				C162.818,378.253,162.171,379.491,162.943,379.726z"/>
		</g>
		<g>
			<path fill-rule="evenodd" clip-rule="evenodd" fill="#FFFFFF" d="M93.882,397.484c-0.271-0.306-0.119-1.612-0.063-2.043
				c0.063-0.416,0.111-0.96,0.403-1.278c0.569-0.682,1.508-1.291,2.375-0.723c0.403,0.278,0.653,0.835,0.98,1.21
				c0.842,0.875,1.745,1.5,2.975,1.472c1.111-0.013,2.125-0.443,3.133-0.888c0.959-0.418,1.799-1.044,2.599-1.862
				c0.702-0.75,1.369-1.6,1.938-2.584c0.515-0.903,1.056-1.863,1.453-2.891c0.375-1.016,0.563-2.085,0.841-3.169
				c0.258-1.028,0.681-2.057,0.847-3.128c0.161-1.109,0.104-2.209,0.173-3.25c0.07-1.125,0.141-2.182,0.104-3.238
				c-0.306,0.473-1.097,1.194-2.161,1.947c-0.75,0.513-1.666,0.984-2.591,1.429c-0.91,0.459-1.813,0.975-2.709,1.184
				c-1.078,0.263-2.084,0.097-2.891-0.225c-0.82-0.375-1.396-1.013-1.654-2.25c-0.125-0.653-0.041-1.75,0.202-3.016
				c0.201-0.959,0.348-2.016,0.751-2.975c0.417-1.025,1.007-1.973,1.626-2.598c1.077-1.068,2.5-1.068,3.903,0.266
				c0.516,1.278,0.189,2.125-0.263,3.013c-0.508,0.932-1.229,1.891-1.431,2.975c0.666,0.46,2.021-0.334,3.432-1.5
				c0.917-0.777,1.959-1.668,2.778-2.696c0.682-0.834,1.126-1.722,1.655-2.403c0.708-0.959,1.458-1.475,2.348-1.543
				c1.368-0.069,2.167,0.293,2.528,1.14c0.341,0.778,0.237,1.819,0.104,2.975c-0.104,0.929-0.104,1.985-0.313,3.001
				c-0.215,1-0.528,1.987-0.681,2.891c-0.188,1.152-0.494,2.222-0.701,3.306c-0.208,1.141-0.285,2.266-0.542,3.322
				c-0.264,1.125-0.584,2.194-0.911,3.222c-0.347,1.128-0.888,2.112-1.319,3.1c-0.459,1.069-0.841,2.126-1.417,3.028
				c-0.619,0.987-1.404,1.766-2.175,2.557c-0.771,0.821-1.591,1.544-2.543,2.156c-0.91,0.609-1.938,1.166-3.069,1.568
				c-1.104,0.348-2.252,0.653-3.384,0.723c-1.181,0.068-2.356-0.098-3.433-0.416C95.662,398.929,94.675,398.372,93.882,397.484z"/>
		</g>
		<g>
			<path fill-rule="evenodd" clip-rule="evenodd" fill="#FFFFFF" d="M220.399,377.476c-0.771,0.263-1.661,0.916-2.599,1.612
				c-0.771,0.568-1.639,1.125-2.433,1.737c-0.839,0.625-1.694,1.193-2.508,1.609c-1.028,0.544-1.986,0.987-2.847,0.778
				c-0.786-0.193-1.453-0.916-1.995-2.153c-1.117,0.419-1.917,1.266-2.806,1.947c-0.875,0.665-1.849,1.109-3.197,1.027
				c-1.375-0.125-2.396-0.821-2.994-1.877c-0.598-1.069-0.875-2.432-1.014-3.557c-0.118-0.96-0.069-1.987,0-3.016
				c0.069-1.013,0.236-2.016,0.465-3c0.236-1,0.583-1.96,0.973-2.851c0.271-0.652,0.618-1.29,1.16-1.737
				c0.631-0.541,1.445-1.027,2.258-0.484c0.756,0.513,1.077,1.569,1.042,2.432c-0.063,1.056-0.521,2.028-0.819,3.071
				c-0.306,1-0.507,2.057-0.668,3.085c-0.049,0.277-0.013,3.112,0.445,3.209c0.785,0.153,1.633,0.069,2.606-0.432
				c0.73-0.375,1.465-0.931,2.271-1.543c0.979-0.75,2.209-1.263,3.112-2.403c0.633-0.819,1.383-1.694,2.273-2.528
				c0.778-0.75,1.682-1.459,2.591-2.182c0.889-0.693,1.828-1.347,2.766-1.959c1.007-0.641,2.022-1.153,2.959-1.597
				c1.063-0.516,2.188,0.097,3.183,1.025c1.041,0.959,1.785,2.209,1.861,3.003c0.139,1.5-0.869,2.321-1.55,3.807
				c-0.375,0.875-0.791,1.806-1.153,2.834c-0.333,0.918-0.528,1.919-0.833,2.946c-0.278,0.96-0.501,1.973-0.758,2.976
				c-0.25,0.956-0.506,1.972-0.715,2.972c-0.202,0.987-0.514,1.959-0.681,3.003c-0.16,1-0.208,2.028-0.327,3.028
				c-0.138,1.125,1.286,2.375,1.112,4.1c-0.117,1.263-1.091,3.25-2.911,3.044c-1.217-0.141-1.745-0.862-1.945-1.737
				c-0.188-0.835-0.188-1.862,0.049-2.81c0.139-0.554,0.82-1.025,0.909-1.484c0.167-0.778,0.07-1.919,0.153-3.237
				c0.063-0.987,0.173-2.085,0.271-3.225c0.092-1.028,0.229-2.113,0.396-3.21c0.175-1.057,0.458-2.1,0.751-3.141
				C219.559,379.519,219.934,378.435,220.399,377.476z M212.326,378.628c-0.07,0.375,1.078-0.375,2.516-1.431
				c0.736-0.541,1.626-1.097,2.425-1.778c0.791-0.682,1.59-1.362,2.229-1.987c1.146-1.169,1.722-2.112,1.299-2.391
				c-0.278-0.306-1.236,0.209-2.466,1.196c-0.702,0.541-1.438,1.263-2.188,1.96c-0.751,0.706-1.543,1.359-2.154,2.041
				C212.84,377.463,212.069,378.488,212.326,378.628z"/>
		</g>
		<g>
			<path fill-rule="evenodd" clip-rule="evenodd" fill="#FFFFFF" d="M253.895,356.869c-0.793-1.085-1.898-2.253-0.98-3.656
				c0.488-0.75,1.271-1.153,2.07-1.194c0.813-0.027,1.633,0.307,2.195,0.96c0.424,0.513,0.869,1.334,1.174,2.194
				c0.299,0.875,0.467,1.765,0.363,2.446c-0.105,0.666-0.855,1.278-1.545,1.403C255.039,359.3,254.797,358.078,253.895,356.869z"/>
		</g>
		<g>
			<path fill-rule="evenodd" clip-rule="evenodd" fill="#FFFFFF" d="M272.049,353.563c0.924,0.472,1.359,2.041,1.033,3.112
				c-0.254,0.875-0.852,1.679-1.428,2.5c-0.584,0.807-1.254,1.557-1.629,2.363c-0.088,0.234,1.883,0.056,1.988,0.027
				c0.762-0.1,1.5-0.306,2.236-0.472c1.113-0.253,3.439-0.653,3.391,1.179c-0.035,1.544-0.619,2.003-1.576,2.196
				c-0.959,0.182-2.156-0.04-3.135,0.11c-0.73,0.127-3.654,1.03-4.25,1.475c-0.223,0.888-0.738,1.737-1.086,2.737
				c-0.326,0.916-0.617,1.875-0.936,2.834c-0.307,0.944-0.633,1.903-0.822,2.862c-0.193,0.973-0.068,1.988-0.02,2.976
				c0.035,0.972,0.125,1.888,0.549,2.818c0.91,0.444,1.861,0.5,2.822,0.266c0.936-0.237,1.914-0.584,2.736-1.155
				c0.875-0.582,1.424-1.514,2-2.166c0.617-0.682,1.23-1.403,1.814-2.182c0.381-0.543,0.936-1.446,1.764-2.391
				c0.598-0.681,1.35-1.375,2.07-2.125c0.701-0.696,1.557-1.237,2.293-1.891c0.799-0.681,1.416-1.543,2.182-2.016
				c1.029-0.653,2.029-0.987,2.814-0.959c1.605,0.043,2.549,1.278,3.264,2.737c0.188,0.584-0.188,1.946-0.582,3.487
				c-0.307,1.141-0.682,2.363-0.682,3.503c0.029,1.266,0.492,2.25,1.584,2.932c1.375,0.347,2.398,0.278,3.307-0.125
				c1.125-0.459,2.064-1.166,3.246-0.766c0.625,1.003,0.221,2.1-0.766,2.975c-0.734,0.625-1.799,1.194-2.875,1.585
				c-1.092,0.431-2.273,0.612-3.217,0.681c-1.125,0.069-2.086-0.25-2.766-0.931c-0.639-0.682-0.875-1.737-1.287-2.669
				c-0.383-0.916-0.783-1.987-1.096-2.834c-0.633,0.584-1.348,1.668-2.17,2.627c-0.674,0.791-1.609,1.473-2.383,2.235
				c-0.799,0.821-1.451,1.834-2.291,2.362c-1.027,0.653-2.133,0.878-3.148,0.709c-0.902-0.138-1.766-0.709-2.596-1.847
				c-0.871,0.722-1.836,1.234-2.762,1.569c-1.068,0.318-2.096,0.306-3.092,0.14c-1.061-0.168-1.979-0.543-2.77-1.25
				c-0.75-0.653-1.521-1.418-1.828-2.503c-0.277-0.902-0.221-2.028-0.084-3.196c-0.701,0.459-1.375,1.266-2.111,2.071
				c-0.631,0.682-1.291,1.46-2,2.141c-0.717,0.694-1.605,1.138-2.473,1.569c-0.842,0.418-1.73,0.793-2.773,0.693
				c-1.182-0.068-2.153-0.693-2.773-1.734c-0.513-0.834-0.702-1.987-0.888-3.197c-0.14-1.056-0.209-2.181-0.14-3.321
				c0.07-1.125,0.354-2.222,0.598-3.278c0.272-1.194,0.445-2.362,0.903-3.209c0.675-1.266,1.61-1.947,2.55-1.878
				c1.492,0.293,1.777,1.016,1.701,2.084c-0.041,0.891-0.158,2.016-0.5,3.141c-0.311,1-0.758,2.225-0.875,3.447
				c-0.139,1.277,0,2.472,0.514,3.405c1.016,0.429,1.967,0.123,2.959-0.556c0.834-0.557,1.531-1.503,2.418-2.128
				c0.932-0.638,1.912-1.082,2.955-1.057c0.137-0.931,0.375-1.778,0.617-2.709c0.234-0.944,0.527-1.848,0.834-2.737
				c0.326-0.957,0.742-1.848,1.109-2.653c-0.596-0.75-1.908-0.584-2.549-1.194c-0.436-0.391-0.443-1.141,0.141-2.682
				c0.783-0.681,1.578-1.434,3.215-1.252c0.398,0.056,1.357-1.541,1.475-1.819c0.359-0.766,0.43-1.682,0.734-2.503
				c0.307-0.791,0.5-1.681,0.975-2.359c0.445-0.71,1.166-1.197,1.973-1.612C271.07,353.422,271.639,353.354,272.049,353.563z
				 M277.822,379.003c0.889-0.611,1.658-1.265,2.404-2.015c0.764-0.723,1.463-1.528,2.111-2.362
				c0.633-0.848,1.266-1.682,1.799-2.626c-0.02-0.318-0.09-0.653-0.549-0.556c-0.693,0.528-1.617,1.375-2.527,2.293
				c-0.82,0.819-1.766,1.639-2.412,2.46C277.488,377.669,276.969,378.906,277.822,379.003z"/>
		</g>
		<g>
			<path fill-rule="evenodd" clip-rule="evenodd" fill="#FFFFFF" d="M347.445,353.52c0.896,0.918,1.041,1.806,0.896,2.696
				c-0.162,0.932-0.67,1.819-1.254,2.682c-0.617,0.89-1.234,1.778-1.576,2.556c0.939,0.585,2.314,0.141,3.709-0.209
				c1.322-0.304,2.607-0.5,3.629,0.25c-0.049,0.334,0,0.419,0.221,0.487c-0.25,1.625-0.596,2.278-1.277,2.528
				c-0.734,0.266-1.742,0.125-2.996,0.209c-0.789,0.085-1.709,0.166-2.561,0.362c-0.932,0.235-1.898,0.528-2.455,0.957
				c-0.213,0.862-0.512,1.862-0.887,2.906c-0.334,0.931-0.625,1.916-0.951,2.875c-0.314,0.972-0.516,1.959-0.703,2.946
				c-0.195,1.028-0.342,2.028-0.244,2.973c0.092,1.028,0.348,2.016,0.975,2.821c0.924,0.444,2.041,0.153,3.258-0.416
				c0.988-0.418,2.049-0.959,3.008-1.612c1.008-0.722,1.848-1.543,2.648-2.125c0.242-1.084,0.416-2.253,0.477-3.49
				c0.049-1.222-0.027-2.459,0.125-3.584c0.182-1.335,0.629-2.544,1.383-3.319c2.023-0.307,2.822,0.722,3.523,1.734
				c0.277,1.403-1.057,2.197-0.512,3.016c0.637-0.138,1.352-0.931,2.104-1.737c0.646-0.693,1.283-1.513,1.988-1.931
				c1.004-0.082,2.104,0.181,3.057,0.527c1.111,0.432,1.971,1.125,2.346,1.906c0.375,0.763,0.258,1.791-0.971,2.682
				c-1.391,0.125-2.488-0.141-3.064-0.835c-1.113,0.388-1.951,1.138-2.771,2.335c-0.633,0.916-1.184,2.043-1.801,3.321
				c-0.516,1.097-0.918,2.432-1.383,3.612c-0.582,1.487-1.334,2.71-2.494,2.682c-1.744,0-1.764-1.475-2.453-3.044
				c-0.713,0.516-1.555,1.197-2.471,1.835c-0.828,0.556-1.73,1.112-2.641,1.556c-0.959,0.444-1.953,0.669-2.939,0.682
				c-0.98,0.028-1.932-0.153-2.842-0.834c-0.959-0.71-1.5-1.669-1.848-2.794c-0.318-1.028-0.619-2.153-0.568-3.362
				c0.033-1.125,0.326-2.278,0.568-3.416c0.234-1.156,0.514-2.294,0.84-3.351c0.391-1.237,0.834-2.362,1.182-3.278
				c-0.598-0.724-1.764-0.696-2.328-1.334c-0.383-0.446-0.486-1.237-0.088-2.641c0.77-0.681,1.658-1.266,3.299-1.071
				c0.672-0.638,1.236-1.5,1.66-2.513c0.375-0.903,0.516-1.987,0.861-2.891c0.408-1.028,0.994-1.903,1.59-2.557
				C345.395,353.588,346.229,353.213,347.445,353.52z"/>
		</g>
		<g>
			<path fill-rule="evenodd" clip-rule="evenodd" fill="#FFFFFF" d="M335.848,362.856c0.785,0.891,0.209,2.307-0.102,3.085
				c-1.42,0-2.414,0.375-3.148,0.987c-0.834,0.681-1.314,1.681-1.584,2.875c-0.23,1.003-0.314,2.128-0.363,3.35
				c-0.053,1.069-0.158,2.223-0.193,3.362c-0.064,1.125-0.064,2.266-0.215,3.378c-0.152,1.11-0.502,2.194-0.898,3.223
				c-0.408,1.056-0.803,2.128-1.588,2.975c-0.988,1.069-2.031,2.319-3.303,2.987c-1.008,0.569-3.486,1.36-4.377,0.097
				c-0.43-0.612-0.139-2.681,0.168-3.362c0.068-0.166,1.988-0.293,2.363-0.431c0.75-0.307,1.541-0.653,2.008-1.335
				c0.479-0.722,0.916-1.515,1.217-2.375c0.303-0.875,0.596-1.737,0.727-2.6c0.16-1.056,0.092-2.182,0.049-3.278
				c-0.068-1.097-0.068-2.225,0-3.281c0.07-1.025,0.104-1.888,0.209-2.778c0.092-0.859,0.209-1.737,0.494-2.693
				c0.256-0.862,0.771-1.781,1.424-2.544c0.654-0.807,1.484-1.403,2.242-1.875c0.17-0.125,0.355-0.209,0.529-0.278
				C332.82,361.828,334.375,361.635,335.848,362.856z"/>
		</g>
		<g>
			<path fill-rule="evenodd" clip-rule="evenodd" fill="#FFFFFF" d="M369.773,379.963c1.291,0.278,2.084-0.334,2.924-1.028
				c0.807-0.682,1.662-1.432,2.906-1.472c0.631,1,0.98,1.679,0.527,2.472c-0.291,0.487-0.834,1.125-1.93,1.848
				c-0.807,0.543-1.746,1.152-2.637,1.668c-1.09,0.597-2.137,0.972-2.908,0.862c-0.857-0.112-1.592-0.653-2.086-1.475
				c-0.465-0.722-0.68-1.638-0.805-2.5c-0.182-1.335,0.477-2.697,0.381-4.1c-0.117-1.751-1.709-0.069-0.84-3.891
				c0.598-0.932,2.242-0.416,3.133-1.098c0.564-0.39,1.35-1.168,2.182-2.084c0.668-0.722,1.391-1.516,2.148-2.153
				c0.867-0.725,1.742-1.321,2.625-1.446c0.891-0.11,1.777,0.237,2.549,1.334c0.652,0.919,0.793,2.321,0.141,3.585
				c-0.412,0.765-1.113,1.487-1.828,2.196c-0.75,0.722-1.521,1.375-2.125,1.875c-0.627,0.487-1.555,0.834-2.412,1.266
				c-0.889,0.443-1.654,1-2.082,1.681C369.213,378.128,369.141,378.865,369.773,379.963z"/>
		</g>
		<g>
			<path fill-rule="evenodd" clip-rule="evenodd" fill="#FFFFFF" d="M234.086,369.097c0.118,0.223,0.153,0.432,0.105,0.848
				c-0.084,0.791-0.314,1.543-0.598,2.293c-0.557,1.444-1.272,2.835-1.508,4.376c0.153,0.625,1.508-0.375,3.098-1.751
				c0.924-0.806,1.967-1.709,2.87-2.556c0.924-0.891,1.611-1.669,2.314-2.125c0.888-0.572,1.736-0.641,2.917,0.165
				c0.486,0.86,0.563,2.098,0.548,3.501c-0.014,1.125-0.034,2.391-0.048,3.584c-0.014,1.281,0.014,2.531,0.32,3.56
				c0.333,1.125,1.813,2.153,1.715,3.016c-0.167,1.402-2.619,2.084-3.488,1.916c-1.041-0.207-1.597-1.307-1.965-2.613
				c-0.278-1.041-0.418-2.25-0.536-3.375c-0.153-1.543-0.271-2.919-0.619-3.35c0,0.028,0.153-0.903-1.994,1.682
				c-0.653,0.806-1.494,1.405-2.278,2.084c-0.717,0.612-1.473,1.225-2.314,1.628c-0.847,0.388-1.772,0.665-2.751,0.513
				c-1.16-0.223-1.78-1.013-2.036-1.932c-0.25-0.903-0.131-1.987,0-2.875c0.139-1.028,0.313-2.059,0.57-3.059
				c0.258-1.014,0.646-1.973,1-2.973c0.369-1.057,0.674-2.153,1-3.253c0.147-0.443,1.557-0.568,1.911-0.568
				c0.702-0.013,0.827,0.237,1.286,0.709C233.829,368.747,233.982,368.916,234.086,369.097z"/>
		</g>
		<g>
			<path fill-rule="evenodd" clip-rule="evenodd" fill="#FFFFFF" d="M383.357,378.56c0.387,1.166,1.604,1.347,2.902,1.138
				c1.25-0.234,2.6-0.694,3.287-1.028c0.729-0.304,1.383-0.888,2.07-1.359c0.715-0.459,1.439-0.891,2.141-1.182
				c1.146-0.502,1.943-2.209,2.973-3.212c0.717-0.722,1.453-1.472,2.152-2.222c0.725-0.778,1.461-1.5,2.178-2.182
				c0.834-0.75,1.617-1.444,2.459-1.847c0.971-0.446,1.986-0.585,3.016-0.25c0.818,0.25,1.709,0.818,2.584,1.722
				c0.061,1.194-0.193,2.5-0.48,3.766c-0.277,1.319-0.604,2.584-0.604,3.71c0,1.306,0.375,2.306,1.611,3.084
				c1.367,0.347,2.32,0.209,3.162-0.194c1.049-0.515,1.799-1.097,2.979-0.693c0.322,1.068,0,2.057-0.805,2.903
				c-0.703,0.693-1.791,1.112-2.822,1.541c-1.082,0.418-2.193,0.834-3.117,0.766c-1.092-0.085-1.863-0.682-2.531-1.335
				c-0.652-0.625-1.207-1.416-1.617-2.334c-0.396-0.888-0.723-1.848-1.035-2.71c-0.695,0.598-1.383,1.419-2.098,2.266
				c-0.654,0.766-1.334,1.585-2.037,2.362c-0.721,0.778-1.508,1.473-2.342,2.016c-0.887,0.554-1.799,1.125-2.846,1.138
				c-2.336,0.057-4.219-1.584-2.928-3.946c-0.541,0.556-1.479,1.266-2.557,1.821c-0.889,0.487-1.938,0.778-2.93,1.028
				c-1.064,0.278-2.098,0.444-3.045,0.263c-1.02-0.193-2-0.581-2.568-1.609c-0.41-0.737-0.557-1.766-0.6-3.044
				c-0.027-0.946,0.209-2.003,0.5-3.253c0.236-0.959,0.516-2.016,0.834-3.182c0.277-1.013,0.584-2.068,0.848-3.209
				c0.27-1.153,0.377-2.35,0.52-3.528c0.141-1.184,0.189-2.378,0.363-3.544c0.188-1.168,0.596-2.266,1.008-3.391
				c0.297-0.766,0.555-1.78,1.492-1.891c0.531-0.056,1.133,0.069,1.641,0.237c0.424,0.153,0.91,0.348,1.111,0.791
				c0.271,0.625,0.738,1.334,0.688,2.322c-0.041,0.652-0.305,1.402-0.805,2.306c-1.016,1.835-1.32,4.098-2.141,6.044
				c-0.361,0.862-0.867,1.653-1.193,2.544c-0.342,0.875-0.633,1.763-0.891,2.666c-0.348,1.321-1.043,3.35-0.633,4.684
				C383.266,378.56,383.35,378.531,383.357,378.56z M396.75,379.351c0.871-0.638,1.738-1.235,2.488-1.987
				c0.744-0.75,1.516-1.5,2.148-2.362c0.633-0.819,1.104-1.807,1.641-2.738c-0.037-0.331-0.092-0.652-0.537-0.568
				c-0.701,0.543-1.535,1.403-2.391,2.321c-0.758,0.819-1.527,1.682-2.152,2.5C396.863,377.988,396.217,379.185,396.75,379.351z"/>
		</g>
		<g>
			<path fill="#FFFFFF" d="M304.848,375.682c-0.186,1.044-0.367,2.1-0.223,3.128c0.125,0.888,0.313,1.834,0.67,2.641
				c0.367,0.888,0.811,1.734,1.408,2.375c0.66,0.694,1.521,1.097,2.426,1.209c0.854,0.125,1.936-0.14,3.084-0.681
				c0.902-0.416,1.842-1,2.785-1.585c0.91-0.584,1.844-1.193,2.689-1.765c0.951-0.625,1.689-1.166,2.203-1.653
				c0.68-0.638,1.217-1.403,1.111-2.362c-0.273-2.487-2.605-1.5-3.967-0.513c-0.939,0.652-1.939,1.263-2.676,2.056
				c-0.855,0.916-2.662,1.916-3.883,1.263c-1.141-0.638-1.621-2.568-1.336-3.766c0.23-0.984,2.021-2.388,2.98-3.041
				c0.822-0.543,1.83-0.959,2.785-1.431c1.002-0.487,1.939-1.071,2.67-1.656c0.674-0.541,1.475-1.179,2.281-1.875
				c0.713-0.638,1.455-1.306,2.117-2.057c0.674-0.777,1.213-1.597,1.648-2.431c0.477-0.916,0.629-1.835,0.609-2.737
				c-0.014-1.041-0.238-1.973-0.764-2.723c-0.744-1.056-1.543-1.612-2.383-1.862c-0.986-0.307-1.953-0.125-2.99,0.347
				c-0.875,0.388-1.832,0.862-2.674,1.585c-0.785,0.652-1.541,1.431-2.258,2.181c-0.766,0.791-1.467,1.612-2.119,2.335
				c-0.84,0.916-1.521,1.834-2.125,2.278C308.92,364.941,306.098,368.679,304.848,375.682z M319.035,360.744
				c0.541-0.041,0.564,0.307,0.564,0.682c-0.703,1-1.467,1.959-2.246,2.85c-0.814,0.916-1.625,1.806-2.549,2.584
				c-0.924,0.763-1.926,1.513-2.975,2.125c-0.584-0.237,0.23-1.666,1.605-3.209c0.773-0.862,1.682-1.85,2.625-2.71
				C317.104,362.106,318.209,361.315,319.035,360.744z"/>
		</g>
	</g>
</g>
</svg>
