<?xml version="1.0" encoding="utf-8"?>
<!-- Generator: Adobe Illustrator 16.0.3, SVG Export Plug-In . SVG Version: 6.00 Build 0)  -->
<!DOCTYPE svg PUBLIC "-//W3C//DTD SVG 1.1//EN" "http://www.w3.org/Graphics/SVG/1.1/DTD/svg11.dtd">
<svg version="1.1" id="Layer_1" xmlns="http://www.w3.org/2000/svg" xmlns:xlink="http://www.w3.org/1999/xlink" x="0px" y="0px"
	 width="500px" height="500px" viewBox="0 0 500 500" enable-background="new 0 0 500 500" xml:space="preserve">
<g>
	<g>
		<path fill="#221F20" d="M250.001,11.897c-112.754,0-207.184,78.367-231.825,183.596h463.632
			C457.17,90.264,362.738,11.897,250.001,11.897z"/>
		<path fill="#D81E05" d="M18.176,195.494c-4.108,17.514-6.266,35.736-6.266,54.492c0,131.506,106.583,238.117,238.091,238.117
			c131.504,0,238.088-106.61,238.088-238.117c0-18.756-2.186-36.979-6.281-54.492H18.176z"/>
	</g>
	<path fill="#221F20" d="M289.9,430.401c0,20.94-16.982,37.935-37.934,37.935c-20.968,0-37.935-16.994-37.935-37.935
		c0-20.952,16.967-37.946,37.935-37.946C272.918,392.455,289.9,409.449,289.9,430.401z"/>
	<path fill="#221F20" d="M289.9,332.938c0,20.955-16.982,37.935-37.934,37.935c-20.968,0-37.935-16.979-37.935-37.935
		c0-20.952,16.967-37.946,37.935-37.946C272.918,294.992,289.9,311.986,289.9,332.938z"/>
	<path fill="#221F20" d="M427.262,291.729c-20.951,0-37.945-16.979-37.945-37.92c0-20.967,16.994-37.948,37.945-37.948
		c20.955,0,37.949,16.981,37.949,37.948C465.211,274.749,448.217,291.729,427.262,291.729z"/>
	<path fill="#221F20" d="M72.737,291.729c-20.952,0-37.947-16.979-37.947-37.92c0-20.967,16.995-37.948,37.947-37.948
		c20.955,0,37.935,16.981,37.935,37.948C110.672,274.749,93.692,291.729,72.737,291.729z"/>
	<path fill="#221F20" d="M188.438,291.729c-20.955,0-37.922-16.979-37.922-37.92c0-20.967,16.967-37.948,37.922-37.948
		c20.967,0,37.947,16.981,37.947,37.948C226.385,274.749,209.405,291.729,188.438,291.729z"/>
	<path fill="#221F20" d="M311.549,291.729c-20.953,0-37.934-16.979-37.934-37.92c0-20.967,16.98-37.948,37.934-37.948
		c20.955,0,37.963,16.981,37.963,37.948C349.512,274.749,332.504,291.729,311.549,291.729z"/>
	<path fill="#221F20" d="M404.221,350.535c14.813,14.821,14.813,38.847,0,53.671c-14.824,14.798-38.85,14.798-53.646,0
		c-14.822-14.824-14.822-38.85-0.012-53.671C365.371,335.724,389.396,335.724,404.221,350.535z"/>
	<path fill="#221F20" d="M98.018,352.227c14.825-14.824,38.834-14.824,53.646,0c14.825,14.825,14.825,38.85,0,53.659
		c-14.812,14.824-38.821,14.797-53.646,0C83.193,391.076,83.193,367.052,98.018,352.227z"/>
	<g>
		<g>
			<path fill="#221F20" d="M339.6,377.364c0,20.874,16.922,37.792,37.791,37.792c20.873,0,37.795-16.918,37.795-37.792
				c0-20.869-16.922-37.792-37.795-37.792C356.521,339.572,339.6,356.495,339.6,377.364z"/>
			<g>
				<g>
					<path fill="#FFFFFF" d="M351.662,389.53V365.8h3.148v2.484c0.953-1.07,1.875-1.854,2.764-2.349
						c0.898-0.488,1.85-0.736,2.859-0.736c1.033,0,1.895,0.258,2.617,0.776c0.711,0.509,1.303,1.309,1.779,2.395
						c1.086-1.131,2.082-1.94,2.98-2.435c0.9-0.488,1.842-0.736,2.824-0.736c1.549,0,2.697,0.504,3.447,1.507
						c0.75,1.007,1.127,2.551,1.127,4.631v18.193h-3.211v-17.144c0-1.664-0.195-2.816-0.582-3.446
						c-0.391-0.634-1.055-0.95-2.01-0.95c-0.771,0-1.529,0.259-2.266,0.78c-0.732,0.521-1.449,1.306-2.131,2.346v18.414h-3.193
						v-17.144c0-1.664-0.197-2.816-0.59-3.446c-0.395-0.634-1.066-0.95-2.016-0.95c-0.777,0-1.527,0.259-2.258,0.78
						c-0.729,0.521-1.443,1.306-2.143,2.346v18.414H351.662z"/>
				</g>
				<g>
					<path fill="#FFFFFF" d="M403.119,389.53h-23.723v-3.151h2.477c-1.074-0.95-1.852-1.869-2.338-2.767
						c-0.498-0.895-0.742-1.842-0.742-2.856c0-1.025,0.256-1.896,0.768-2.612c0.512-0.709,1.316-1.306,2.404-1.784
						c-1.133-1.086-1.943-2.077-2.43-2.975c-0.498-0.902-0.742-1.843-0.742-2.824c0-1.549,0.502-2.697,1.508-3.449
						c1.002-0.754,2.545-1.125,4.629-1.125h18.189v3.21H385.98c-1.668,0-2.813,0.195-3.449,0.581
						c-0.631,0.389-0.947,1.059-0.947,2.01c0,0.773,0.258,1.525,0.785,2.265c0.52,0.736,1.297,1.442,2.338,2.133h18.412v3.192
						H385.98c-1.668,0-2.813,0.195-3.449,0.589c-0.631,0.396-0.947,1.067-0.947,2.022c0,0.771,0.258,1.523,0.785,2.254
						c0.52,0.726,1.297,1.442,2.338,2.137h18.412V389.53z"/>
				</g>
			</g>
		</g>
	</g>
</g>
</svg>
