<?xml version="1.0" encoding="utf-8"?>
<!-- Generator: Adobe Illustrator 16.0.3, SVG Export Plug-In . SVG Version: 6.00 Build 0)  -->
<!DOCTYPE svg PUBLIC "-//W3C//DTD SVG 1.1//EN" "http://www.w3.org/Graphics/SVG/1.1/DTD/svg11.dtd">
<svg version="1.1" id="Layer_1" xmlns="http://www.w3.org/2000/svg" xmlns:xlink="http://www.w3.org/1999/xlink" x="0px" y="0px"
	 width="244.279px" height="50px" viewBox="0 0 244.279 50" enable-background="new 0 0 244.279 50" xml:space="preserve">
<g>
	<g>
		<g>
			<path d="M0,42.029V1.451h5.387v4.245C7.016,3.86,8.59,2.522,10.116,1.681c1.531-0.835,3.158-1.26,4.889-1.26
				c1.757,0,3.244,0.442,4.467,1.323c1.223,0.875,2.24,2.239,3.053,4.099c1.856-1.934,3.558-3.321,5.096-4.162
				c1.542-0.835,3.152-1.26,4.831-1.26c2.646,0,4.612,0.859,5.898,2.576c1.285,1.724,1.928,4.363,1.928,7.918v31.114h-5.499V12.714
				c0-2.845-0.33-4.818-0.991-5.896c-0.662-1.079-1.807-1.624-3.436-1.624c-1.323,0-2.615,0.445-3.873,1.335
				c-1.26,0.893-2.477,2.23-3.651,4.014v31.486h-5.457V12.714c0-2.845-0.337-4.818-1.012-5.896
				c-0.673-1.079-1.825-1.624-3.454-1.624c-1.323,0-2.609,0.445-3.858,1.335c-1.249,0.893-2.47,2.23-3.662,4.014v31.486H0z"/>
		</g>
		<g>
			<path d="M88.019,42.029H47.437v-5.374h4.237c-1.833-1.63-3.167-3.209-4.006-4.737c-0.843-1.531-1.263-3.154-1.263-4.887
				c0-1.754,0.438-3.246,1.317-4.467c0.878-1.219,2.25-2.233,4.105-3.051c-1.936-1.864-3.319-3.561-4.159-5.096
				c-0.843-1.541-1.263-3.148-1.263-4.826c0-2.654,0.861-4.619,2.58-5.904c1.717-1.287,4.355-1.924,7.919-1.924h31.115v5.494H58.7
				c-2.851,0-4.819,0.336-5.899,0.996c-1.083,0.662-1.625,1.804-1.625,3.43c0,1.325,0.447,2.617,1.341,3.878
				c0.89,1.261,2.224,2.472,4.007,3.646h31.495v5.46H58.7c-2.851,0-4.819,0.339-5.899,1.013c-1.083,0.675-1.625,1.827-1.625,3.457
				c0,1.324,0.447,2.607,1.341,3.853c0.89,1.241,2.224,2.471,4.007,3.667h31.495V42.029z"/>
		</g>
	</g>
	<g>
		<g>
			<path fill-rule="evenodd" clip-rule="evenodd" d="M97.195,41.307c-0.547,0.475-1.09,0.739-1.555,0.863
				c-0.65,0.169-1.145-0.013-1.465-0.624c0-0.169,0.025-0.551,0.025-0.723c0.009-0.265,0.376-1.439,0.361-2.14
				c-0.021-0.538-0.594-0.458-0.418-1.356c0.125-0.685,0.771-0.834,1.041-1.64c0.105-0.314,0.277-0.805,0.363-1.41
				c0.072-0.437,0.072-0.942,0.135-1.445c0.053-0.49,0.146-0.975,0.196-1.439c0.054-0.544,0.069-1.05,0.1-1.467
				c0.054-0.545,0.022-1.194,0.104-1.723c0.085-0.618,0.329-1.051,1.153-0.892c0.496,0.093,0.646,0.478,0.646,0.968
				c0.007,0.376-0.081,0.824-0.197,1.258c-0.125,0.462-0.314,0.9-0.396,1.226c-0.123,0.51-0.233,0.942-0.331,1.344
				c-0.112,0.48-0.207,0.9-0.291,1.365c-0.086,0.414-0.107,0.851-0.191,1.372c0.568-0.289,1.123-0.318,1.648-0.279
				c0.599,0.054,1.142,0.254,1.563,0.595c0.473,0.382,0.798,0.892,0.867,1.42c0.063,0.516,0.009,1.025-0.187,1.516
				c-0.183,0.442-0.496,0.854-0.844,1.258c-0.324,0.385-0.725,0.697-1.121,1.024C98.012,40.705,97.622,41.043,97.195,41.307z
				 M96.352,40.018c0.337-0.28,0.752-0.538,1.121-0.854c0.375-0.318,0.723-0.665,0.965-1.069c0.221-0.398,0.363-0.892,0.311-1.423
				c-0.439-0.242-0.986-0.214-1.435-0.017c-0.422,0.179-0.813,0.517-1.108,0.901c-0.312,0.385-0.469,0.866-0.488,1.296
				C95.704,39.323,95.863,39.737,96.352,40.018z"/>
		</g>
		<g>
			<path fill-rule="evenodd" clip-rule="evenodd" d="M148.029,30.291c-0.143-0.193-0.373-0.292-0.498-0.512
				c-0.109-0.211-0.158-0.459-0.148-0.691c0.031-0.516,0.467-0.93,0.967-1.009c0.74-0.134,1.344,0.42,1.643,1.024
				c0.215,0.452,0.518,1.22,0.215,1.717c-0.129,0.207-0.445,0.375-0.697,0.392C148.641,31.256,148.436,30.855,148.029,30.291z"/>
		</g>
		<g>
			<path fill-rule="evenodd" clip-rule="evenodd" d="M124.496,35.013c-0.338,0.265-0.66,0.669-0.992,1.025
				c-0.313,0.331-0.612,0.682-0.906,1.038c-0.303,0.372-0.627,0.71-0.918,1.054c-0.322,0.372-0.678,0.694-0.98,0.971
				c-0.433,0.389-0.811,0.685-1.176,0.665c-0.42-0.231-0.713-0.614-0.893-1.082c-0.16-0.41-0.172-0.91-0.254-1.395
				c-0.086-0.471-0.192-0.974-0.314-1.41c-0.49,0.172-0.862,0.776-1.104,1.41c-0.238,0.624-0.385,1.309-0.531,1.71
				c-0.08,0.2-0.265,0.662-0.49,1.172c-0.168,0.378-0.363,0.779-0.588,1.104c-0.314,0.43-0.633,0.681-1,0.541
				c-0.76-0.296-1.074-0.71-1.044-1.194c0.034-0.478,0.382-1.024,0.735-1.521c0.387-0.531,0.813-1.019,1.01-1.344
				c0.266-0.445,0.54-1.009,0.772-1.572c0.274-0.637,0.536-1.248,0.726-1.586c0.164-0.296,0.514-0.617,0.828-1.069
				c0.442-0.614,0.894-1.347,1.285-1.327c0.637,0.031,0.922,0.521,1.032,1.174c0.091,0.51,0.077,1.115,0.128,1.688
				c0.049,0.646,0.149,1.226,0.467,1.579c0.203,0.341,0.602-0.031,1.125-0.723c0.275-0.359,0.602-0.792,0.919-1.248
				c0.305-0.413,0.572-0.878,0.894-1.279c0.348-0.437,0.742-0.793,1.102-1.083c0.295-0.251,0.76-0.547,1.215-0.576
				c0.445-0.028,0.857,0.185,1.031,0.745c0.107,0.36,0.102,0.818,0.053,1.331c-0.033,0.417-0.061,0.869-0.137,1.334
				c-0.076,0.43-0.248,0.862-0.318,1.309c-0.07,0.442-0.129,0.9-0.162,1.334c-0.029,0.468,0.027,0.92,0.084,1.347
				c0.064,0.516,0.396,1.353,0.375,1.734c-0.033,0.608-0.277,1.042-0.607,1.318c-0.41,0.328-0.904,0.369-1.346,0.067
				c-0.324-0.224-0.59-0.611-0.689-1.248c-0.086-0.555,0.193-0.765,0.289-1.376c0.076-0.478,0.061-1.006,0.084-1.534
				c0.01-0.522,0.086-1.038,0.107-1.528C124.328,35.993,124.367,35.42,124.496,35.013z"/>
		</g>
		<g>
			<path fill-rule="evenodd" clip-rule="evenodd" d="M135.309,35.434c0.107,0.455-0.01,1.019-0.189,1.655
				c-0.152,0.534-0.367,1.107-0.32,1.671c0.035,0.52,0.305,0.978,0.82,1.43c0.492,0.051,0.865,0.063,1.207-0.032
				c0.441-0.12,0.809-0.264,1.141-0.49c0.473-0.102,0.393,0.227,0.686,0.29c0.066-0.433,0.1-0.882,0.117-1.359
				c0.014-0.465,0.111-0.936,0.139-1.395c0.023-0.483-0.01-0.961,0.076-1.385c0.104-0.51,0.326-0.882,0.604-1.207
				c0.813-0.385,1.205,0.239,1.523,0.697c0.129,0.637-0.449,0.975-0.207,1.347c0.293-0.069,0.592-0.439,0.93-0.799
				c0.283-0.328,0.617-0.624,0.93-0.806c0.484-0.031,0.945,0.077,1.355,0.217c0.531,0.166,0.918,0.42,1.068,0.758
				c0.148,0.359,0.076,0.755-0.488,1.162c-0.629,0.058-1.207-0.08-1.473-0.401c-0.225,0.076-0.803,0.618-1.289,1.241
				c-0.4,0.51-0.775,1.08-0.91,1.528c-0.182,0.653-0.316,1.185-0.465,1.608c-0.252,0.71-0.477,1.114-1.059,1.114
				c-0.455-0.017-0.734-0.258-0.879-0.637c-0.105-0.318-0.121-0.669-0.203-1.051c-0.383,0.315-0.754,0.573-1.154,0.786
				c-0.451,0.235-0.945,0.296-1.379,0.359c-0.5,0.064-1,0.125-1.43-0.089c-0.381-0.2-0.748-0.544-1.025-1.025
				c-0.199-0.356-0.32-0.817-0.447-1.359c-0.369,0.262-0.717,0.542-1.023,0.908c-0.293,0.356-0.518,0.779-0.818,1.13
				c-0.299,0.372-0.613,0.729-0.992,0.961c-0.371,0.249-0.83,0.293-1.34,0.297c-0.619,0.013-0.971-0.105-1.184-0.357
				c-0.264-0.309-0.27-0.726-0.141-1.229c0.1-0.392,0.258-0.815,0.482-1.216c0.223-0.417,0.508-0.773,0.748-1.089
				c0.234-0.322,0.521-0.691,0.852-1.063c0.293-0.315,0.621-0.649,0.951-0.962c0.33-0.327,0.59-0.723,0.938-1.006
				c0.375-0.309,0.775-0.561,1.123-0.786c0.486-0.296,0.945-0.484,1.283-0.468C134.613,34.411,134.957,35.02,135.309,35.434z
				 M129.797,40.527c0.395-0.287,0.734-0.659,1.076-0.987c0.342-0.341,0.711-0.652,1.004-1.038c0.283-0.372,0.461-0.834,0.705-1.257
				c-0.02-0.15,0.008-0.262-0.199-0.227c-0.311,0.245-0.766,0.573-1.178,0.987c-0.363,0.369-0.666,0.84-0.959,1.21
				C129.74,39.861,129.447,40.422,129.797,40.527z"/>
		</g>
		<g>
			<path fill-rule="evenodd" clip-rule="evenodd" d="M98.544,48.563c-0.122-0.137-0.054-0.726-0.03-0.923
				c0.03-0.188,0.05-0.434,0.184-0.58c0.256-0.306,0.68-0.582,1.074-0.324c0.18,0.127,0.295,0.379,0.443,0.548
				c0.382,0.395,0.789,0.678,1.346,0.665c0.503-0.007,0.963-0.2,1.418-0.401c0.435-0.19,0.814-0.471,1.176-0.844
				c0.32-0.337,0.62-0.723,0.877-1.171c0.232-0.408,0.478-0.841,0.658-1.306c0.172-0.462,0.254-0.942,0.383-1.433
				c0.115-0.468,0.307-0.933,0.381-1.417c0.074-0.503,0.047-1,0.081-1.471c0.029-0.51,0.062-0.983,0.043-1.465
				c-0.138,0.21-0.493,0.542-0.976,0.882c-0.34,0.232-0.755,0.442-1.172,0.646c-0.41,0.204-0.823,0.442-1.229,0.535
				c-0.486,0.117-0.941,0.044-1.307-0.102c-0.37-0.173-0.633-0.462-0.75-1.02c-0.055-0.296-0.019-0.792,0.094-1.362
				c0.09-0.437,0.156-0.914,0.338-1.35c0.189-0.465,0.455-0.889,0.737-1.175c0.487-0.484,1.134-0.484,1.767,0.121
				c0.234,0.579,0.086,0.961-0.119,1.365c-0.228,0.421-0.557,0.854-0.648,1.347c0.301,0.207,0.914-0.156,1.552-0.681
				c0.417-0.354,0.888-0.755,1.257-1.22c0.31-0.379,0.51-0.78,0.751-1.089c0.32-0.437,0.66-0.669,1.062-0.697
				c0.619-0.032,0.98,0.131,1.145,0.516c0.156,0.351,0.106,0.825,0.047,1.344c-0.047,0.423-0.047,0.901-0.139,1.359
				c-0.1,0.452-0.241,0.897-0.311,1.309c-0.082,0.522-0.224,1.003-0.316,1.496c-0.094,0.516-0.131,1.025-0.246,1.503
				c-0.119,0.509-0.263,0.996-0.412,1.458c-0.157,0.51-0.402,0.955-0.595,1.404c-0.21,0.483-0.383,0.961-0.644,1.369
				c-0.278,0.445-0.637,0.799-0.983,1.158c-0.35,0.373-0.719,0.697-1.151,0.975c-0.412,0.276-0.877,0.528-1.389,0.71
				c-0.502,0.159-1.02,0.296-1.531,0.328c-0.535,0.028-1.066-0.045-1.554-0.188C99.348,49.219,98.899,48.967,98.544,48.563z"/>
		</g>
		<g>
			<path fill-rule="evenodd" clip-rule="evenodd" d="M155.797,39.508c-0.348,0.121-0.748,0.418-1.176,0.732
				c-0.348,0.255-0.74,0.507-1.102,0.786c-0.379,0.28-0.766,0.542-1.135,0.727c-0.465,0.248-0.896,0.448-1.283,0.354
				c-0.357-0.086-0.66-0.414-0.908-0.975c-0.504,0.191-0.865,0.573-1.266,0.882c-0.396,0.303-0.838,0.5-1.451,0.465
				c-0.617-0.054-1.082-0.372-1.352-0.85c-0.271-0.484-0.396-1.102-0.461-1.611c-0.049-0.433-0.031-0.897,0-1.366
				c0.033-0.455,0.109-0.91,0.213-1.355c0.104-0.452,0.26-0.886,0.441-1.29c0.121-0.296,0.279-0.586,0.523-0.786
				c0.283-0.245,0.654-0.465,1.023-0.217c0.342,0.229,0.484,0.707,0.467,1.096c-0.027,0.48-0.234,0.92-0.369,1.392
				c-0.135,0.451-0.229,0.933-0.303,1.397c-0.021,0.127-0.004,1.41,0.205,1.451c0.352,0.073,0.738,0.035,1.176-0.194
				c0.332-0.168,0.662-0.42,1.027-0.697c0.445-0.34,1-0.572,1.41-1.088c0.285-0.373,0.621-0.768,1.027-1.144
				c0.352-0.341,0.762-0.662,1.172-0.99c0.406-0.312,0.83-0.607,1.254-0.885c0.455-0.29,0.914-0.522,1.338-0.723
				c0.482-0.235,0.992,0.045,1.441,0.465c0.469,0.433,0.809,1,0.844,1.356c0.059,0.678-0.396,1.051-0.703,1.726
				c-0.172,0.395-0.355,0.818-0.523,1.282c-0.148,0.414-0.238,0.866-0.377,1.334c-0.123,0.434-0.227,0.892-0.344,1.347
				c-0.111,0.431-0.23,0.889-0.32,1.344c-0.09,0.446-0.234,0.889-0.311,1.359c-0.072,0.452-0.09,0.917-0.145,1.369
				c-0.063,0.51,0.582,1.076,0.502,1.854c-0.051,0.572-0.492,1.474-1.316,1.381c-0.551-0.066-0.791-0.392-0.879-0.786
				c-0.092-0.379-0.092-0.844,0.018-1.273c0.063-0.248,0.373-0.465,0.414-0.672c0.076-0.35,0.031-0.866,0.068-1.464
				c0.025-0.446,0.08-0.942,0.121-1.459c0.045-0.468,0.107-0.955,0.18-1.454c0.082-0.478,0.207-0.949,0.344-1.42
				C155.418,40.435,155.588,39.941,155.797,39.508z M152.145,40.033c-0.029,0.169,0.488-0.172,1.137-0.649
				c0.334-0.245,0.738-0.496,1.1-0.806c0.355-0.305,0.723-0.614,1.01-0.897c0.52-0.528,0.779-0.955,0.586-1.082
				c-0.125-0.141-0.559,0.092-1.113,0.541c-0.32,0.248-0.654,0.569-0.99,0.888c-0.344,0.318-0.699,0.618-0.98,0.921
				C152.381,39.505,152.029,39.97,152.145,40.033z"/>
		</g>
		<g>
			<path fill-rule="evenodd" clip-rule="evenodd" d="M170.957,30.184c-0.359-0.49-0.861-1.016-0.441-1.652
				c0.221-0.341,0.572-0.525,0.934-0.542c0.369-0.013,0.738,0.141,0.994,0.437c0.195,0.229,0.395,0.602,0.533,0.99
				c0.131,0.397,0.207,0.799,0.162,1.107c-0.045,0.303-0.387,0.58-0.697,0.637C171.477,31.288,171.367,30.73,170.957,30.184z"/>
		</g>
		<g>
			<path fill-rule="evenodd" clip-rule="evenodd" d="M179.174,28.687c0.42,0.217,0.613,0.927,0.465,1.411
				c-0.113,0.395-0.383,0.758-0.646,1.13c-0.26,0.363-0.566,0.707-0.738,1.069c-0.035,0.105,0.857,0.025,0.902,0.013
				c0.346-0.044,0.68-0.137,1.014-0.213c0.504-0.114,1.555-0.293,1.537,0.531c-0.02,0.701-0.285,0.908-0.717,0.997
				c-0.432,0.083-0.979-0.022-1.42,0.051c-0.328,0.058-1.654,0.465-1.92,0.665c-0.104,0.401-0.334,0.787-0.49,1.238
				c-0.148,0.414-0.281,0.851-0.424,1.283c-0.141,0.427-0.289,0.863-0.375,1.296c-0.086,0.439-0.027,0.897-0.01,1.347
				c0.016,0.437,0.059,0.854,0.248,1.276c0.412,0.201,0.844,0.224,1.281,0.118c0.418-0.108,0.865-0.264,1.234-0.522
				c0.396-0.264,0.645-0.684,0.906-0.98c0.279-0.309,0.559-0.637,0.824-0.986c0.172-0.245,0.418-0.653,0.793-1.083
				c0.275-0.309,0.613-0.62,0.938-0.958c0.32-0.318,0.703-0.563,1.041-0.859c0.357-0.309,0.641-0.697,0.982-0.911
				c0.469-0.296,0.92-0.445,1.281-0.436c0.721,0.022,1.148,0.579,1.473,1.241c0.086,0.265-0.084,0.879-0.266,1.579
				c-0.139,0.516-0.307,1.066-0.307,1.586c0.014,0.569,0.223,1.016,0.717,1.324c0.623,0.156,1.086,0.124,1.496-0.055
				c0.51-0.21,0.938-0.531,1.469-0.35c0.285,0.452,0.104,0.952-0.346,1.347c-0.334,0.283-0.813,0.541-1.297,0.716
				c-0.498,0.198-1.033,0.277-1.463,0.31c-0.504,0.031-0.941-0.111-1.248-0.421c-0.287-0.309-0.396-0.786-0.586-1.21
				c-0.172-0.413-0.352-0.897-0.496-1.282c-0.283,0.268-0.607,0.758-0.977,1.193c-0.309,0.354-0.73,0.666-1.082,1.01
				c-0.361,0.369-0.654,0.831-1.037,1.066c-0.463,0.296-0.965,0.401-1.424,0.321c-0.41-0.061-0.797-0.321-1.176-0.834
				c-0.393,0.324-0.824,0.557-1.25,0.713c-0.482,0.141-0.945,0.137-1.396,0.061c-0.482-0.076-0.896-0.248-1.252-0.563
				c-0.344-0.296-0.691-0.643-0.83-1.134c-0.127-0.407-0.1-0.92-0.035-1.448c-0.32,0.207-0.623,0.573-0.955,0.939
				c-0.289,0.309-0.586,0.659-0.906,0.968c-0.33,0.312-0.73,0.513-1.123,0.71c-0.379,0.188-0.779,0.359-1.252,0.312
				c-0.537-0.031-0.975-0.312-1.254-0.786c-0.234-0.372-0.32-0.895-0.404-1.442c-0.064-0.478-0.096-0.986-0.064-1.502
				c0.031-0.51,0.162-1.01,0.271-1.487c0.121-0.541,0.201-1.066,0.41-1.451c0.305-0.573,0.729-0.883,1.152-0.851
				c0.676,0.134,0.807,0.459,0.771,0.945c-0.02,0.401-0.072,0.911-0.227,1.42c-0.139,0.452-0.342,1.007-0.395,1.561
				c-0.064,0.576,0,1.117,0.229,1.541c0.459,0.194,0.893,0.057,1.344-0.252c0.373-0.251,0.689-0.678,1.09-0.961
				c0.424-0.29,0.871-0.494,1.34-0.481c0.063-0.42,0.172-0.806,0.279-1.226c0.107-0.427,0.238-0.837,0.377-1.238
				c0.15-0.433,0.34-0.837,0.502-1.2c-0.271-0.341-0.867-0.265-1.154-0.541c-0.193-0.176-0.199-0.516,0.063-1.21
				c0.355-0.313,0.717-0.652,1.455-0.57c0.182,0.022,0.619-0.7,0.668-0.824c0.162-0.344,0.193-0.761,0.334-1.134
				c0.139-0.356,0.225-0.758,0.441-1.066c0.201-0.321,0.527-0.541,0.893-0.729C178.732,28.626,178.984,28.595,179.174,28.687z
				 M181.783,40.202c0.406-0.276,0.754-0.573,1.09-0.91c0.348-0.331,0.662-0.694,0.955-1.07c0.291-0.385,0.574-0.761,0.818-1.19
				c-0.01-0.144-0.047-0.296-0.25-0.251c-0.314,0.238-0.732,0.624-1.145,1.037c-0.373,0.373-0.797,0.742-1.09,1.114
				C181.635,39.598,181.4,40.157,181.783,40.202z"/>
		</g>
		<g>
			<path fill-rule="evenodd" clip-rule="evenodd" d="M213.295,28.668c0.406,0.417,0.471,0.814,0.406,1.219
				c-0.076,0.424-0.305,0.825-0.568,1.217c-0.277,0.404-0.559,0.802-0.717,1.155c0.43,0.268,1.051,0.063,1.682-0.096
				c0.596-0.137,1.176-0.226,1.641,0.112c-0.021,0.152,0,0.193,0.104,0.223c-0.117,0.735-0.27,1.031-0.58,1.143
				c-0.334,0.121-0.789,0.058-1.357,0.096c-0.355,0.038-0.771,0.073-1.158,0.165c-0.42,0.108-0.855,0.239-1.109,0.434
				c-0.098,0.392-0.229,0.84-0.4,1.314c-0.154,0.424-0.283,0.866-0.432,1.299c-0.141,0.442-0.23,0.889-0.322,1.334
				c-0.084,0.469-0.152,0.917-0.105,1.347c0.039,0.465,0.156,0.914,0.439,1.277c0.42,0.2,0.924,0.066,1.475-0.188
				c0.445-0.19,0.928-0.436,1.361-0.732c0.455-0.324,0.834-0.693,1.199-0.961c0.111-0.487,0.189-1.019,0.215-1.576
				c0.023-0.554-0.014-1.114,0.061-1.627c0.08-0.602,0.283-1.149,0.619-1.499c0.922-0.137,1.283,0.328,1.598,0.786
				c0.125,0.637-0.479,0.99-0.236,1.362c0.291-0.061,0.615-0.42,0.957-0.783c0.293-0.314,0.582-0.685,0.896-0.875
				c0.455-0.038,0.955,0.083,1.383,0.238c0.506,0.194,0.898,0.51,1.066,0.863c0.17,0.347,0.115,0.812-0.439,1.213
				c-0.631,0.058-1.131-0.063-1.387-0.379c-0.506,0.178-0.885,0.516-1.254,1.057c-0.287,0.417-0.541,0.927-0.82,1.503
				c-0.23,0.497-0.414,1.104-0.621,1.637c-0.266,0.675-0.605,1.226-1.133,1.213c-0.783,0-0.793-0.669-1.107-1.376
				c-0.32,0.232-0.703,0.542-1.119,0.831c-0.373,0.249-0.783,0.5-1.193,0.704c-0.436,0.197-0.883,0.303-1.33,0.306
				c-0.441,0.016-0.873-0.067-1.289-0.376c-0.434-0.324-0.676-0.758-0.834-1.264c-0.143-0.468-0.283-0.975-0.256-1.521
				c0.012-0.513,0.145-1.032,0.256-1.548c0.105-0.522,0.23-1.038,0.379-1.519c0.178-0.557,0.379-1.066,0.537-1.483
				c-0.271-0.325-0.803-0.313-1.055-0.602c-0.172-0.204-0.221-0.561-0.041-1.194c0.348-0.309,0.748-0.569,1.492-0.487
				c0.307-0.286,0.559-0.675,0.752-1.136c0.172-0.408,0.234-0.898,0.389-1.309c0.189-0.465,0.451-0.863,0.721-1.156
				C212.363,28.703,212.746,28.531,213.295,28.668z"/>
		</g>
		<g>
			<path fill-rule="evenodd" clip-rule="evenodd" d="M208.045,32.896c0.355,0.401,0.094,1.041-0.045,1.392
				c-0.645,0-1.096,0.169-1.424,0.449c-0.379,0.309-0.596,0.761-0.717,1.302c-0.104,0.455-0.145,0.965-0.162,1.519
				c-0.027,0.48-0.076,1.003-0.09,1.519c-0.027,0.51-0.027,1.025-0.1,1.528c-0.068,0.503-0.225,0.993-0.406,1.458
				c-0.184,0.478-0.363,0.965-0.715,1.347c-0.447,0.487-0.92,1.051-1.496,1.354c-0.457,0.254-1.578,0.617-1.984,0.041
				c-0.193-0.273-0.059-1.213,0.076-1.519c0.037-0.073,0.9-0.134,1.068-0.197c0.342-0.137,0.699-0.293,0.91-0.602
				c0.221-0.328,0.416-0.685,0.549-1.076c0.141-0.396,0.271-0.787,0.33-1.179c0.072-0.474,0.047-0.986,0.023-1.479
				c-0.031-0.497-0.031-1.01,0-1.487c0.031-0.465,0.049-0.854,0.094-1.258c0.041-0.388,0.094-0.786,0.225-1.219
				c0.113-0.392,0.348-0.806,0.645-1.149c0.299-0.366,0.672-0.637,1.016-0.851c0.076-0.057,0.162-0.095,0.238-0.127
				C206.676,32.428,207.379,32.342,208.045,32.896z"/>
		</g>
		<g>
			<path fill-rule="evenodd" clip-rule="evenodd" d="M223.396,40.636c0.586,0.127,0.947-0.15,1.326-0.465
				c0.363-0.31,0.75-0.646,1.314-0.666c0.285,0.452,0.441,0.761,0.238,1.117c-0.131,0.22-0.379,0.51-0.869,0.838
				c-0.369,0.245-0.793,0.522-1.193,0.755c-0.498,0.271-0.971,0.438-1.316,0.388c-0.393-0.048-0.721-0.293-0.947-0.665
				c-0.213-0.325-0.307-0.742-0.359-1.13c-0.086-0.605,0.211-1.223,0.166-1.859c-0.051-0.79-0.771-0.025-0.379-1.761
				c0.271-0.421,1.014-0.185,1.42-0.497c0.252-0.175,0.609-0.528,0.988-0.942c0.301-0.328,0.625-0.685,0.967-0.974
				c0.393-0.325,0.795-0.599,1.191-0.656c0.4-0.048,0.801,0.108,1.154,0.608c0.293,0.41,0.359,1.051,0.061,1.62
				c-0.184,0.344-0.5,0.672-0.824,0.993c-0.338,0.328-0.689,0.624-0.965,0.851c-0.283,0.22-0.701,0.379-1.09,0.569
				c-0.4,0.201-0.748,0.456-0.943,0.765C223.145,39.805,223.113,40.142,223.396,40.636z"/>
		</g>
		<g>
			<path fill-rule="evenodd" clip-rule="evenodd" d="M161.994,35.717c0.055,0.102,0.07,0.197,0.045,0.382
				c-0.037,0.359-0.141,0.7-0.266,1.041c-0.258,0.656-0.578,1.283-0.686,1.98c0.066,0.283,0.686-0.172,1.4-0.79
				c0.42-0.366,0.895-0.773,1.299-1.158c0.42-0.405,0.73-0.755,1.049-0.965c0.402-0.255,0.785-0.287,1.316,0.076
				c0.223,0.389,0.258,0.952,0.254,1.585c-0.01,0.507-0.02,1.08-0.023,1.621c-0.008,0.582,0.004,1.146,0.145,1.614
				c0.152,0.509,0.82,0.974,0.775,1.362c-0.076,0.637-1.186,0.942-1.578,0.869c-0.467-0.096-0.721-0.596-0.889-1.185
				c-0.125-0.471-0.189-1.019-0.242-1.528c-0.066-0.696-0.121-1.32-0.279-1.515c0,0.013,0.066-0.408-0.906,0.761
				c-0.293,0.362-0.676,0.637-1.033,0.945c-0.318,0.273-0.662,0.551-1.041,0.732c-0.387,0.178-0.801,0.303-1.248,0.235
				c-0.521-0.102-0.801-0.458-0.918-0.875c-0.113-0.411-0.059-0.898,0-1.303c0.063-0.465,0.139-0.933,0.256-1.382
				c0.119-0.461,0.293-0.895,0.451-1.347c0.168-0.48,0.307-0.974,0.451-1.471c0.07-0.203,0.707-0.261,0.869-0.261
				c0.316-0.007,0.375,0.108,0.582,0.324C161.875,35.561,161.945,35.637,161.994,35.717z"/>
		</g>
		<g>
			<path fill-rule="evenodd" clip-rule="evenodd" d="M229.543,40.002c0.176,0.525,0.73,0.607,1.316,0.513
				c0.566-0.103,1.178-0.313,1.488-0.465c0.328-0.138,0.627-0.401,0.938-0.611c0.324-0.21,0.652-0.408,0.969-0.538
				c0.518-0.229,0.879-0.997,1.342-1.452c0.33-0.331,0.664-0.668,0.979-1.009c0.324-0.351,0.658-0.679,0.982-0.987
				c0.379-0.337,0.736-0.652,1.113-0.834c0.441-0.2,0.902-0.261,1.365-0.114c0.369,0.114,0.775,0.372,1.166,0.779
				c0.033,0.538-0.084,1.134-0.215,1.703c-0.127,0.599-0.27,1.172-0.27,1.682c0,0.589,0.166,1.041,0.727,1.395
				c0.619,0.155,1.049,0.095,1.432-0.086c0.473-0.236,0.814-0.497,1.348-0.315c0.148,0.483,0,0.93-0.365,1.312
				c-0.314,0.318-0.813,0.503-1.275,0.7c-0.492,0.188-0.996,0.376-1.41,0.348c-0.496-0.038-0.844-0.313-1.145-0.605
				c-0.297-0.283-0.547-0.64-0.736-1.057c-0.174-0.401-0.324-0.834-0.467-1.226c-0.316,0.271-0.623,0.64-0.947,1.024
				c-0.299,0.348-0.604,0.717-0.924,1.07c-0.324,0.35-0.682,0.665-1.061,0.91c-0.4,0.252-0.809,0.51-1.287,0.516
				c-1.055,0.025-1.906-0.716-1.326-1.786c-0.244,0.252-0.666,0.573-1.154,0.825c-0.406,0.223-0.879,0.354-1.328,0.465
				c-0.479,0.124-0.951,0.2-1.375,0.121c-0.465-0.09-0.906-0.265-1.162-0.732c-0.189-0.331-0.252-0.799-0.271-1.375
				c-0.014-0.431,0.09-0.908,0.227-1.472c0.107-0.436,0.234-0.913,0.373-1.441c0.131-0.459,0.266-0.937,0.383-1.452
				c0.123-0.522,0.172-1.063,0.238-1.595c0.064-0.535,0.086-1.076,0.162-1.604c0.086-0.529,0.271-1.025,0.455-1.535
				c0.137-0.347,0.254-0.806,0.678-0.856c0.238-0.022,0.514,0.032,0.742,0.108c0.195,0.07,0.412,0.156,0.506,0.356
				c0.121,0.283,0.334,0.608,0.307,1.054c-0.018,0.293-0.135,0.634-0.361,1.041c-0.459,0.828-0.598,1.854-0.969,2.735
				c-0.166,0.392-0.393,0.751-0.541,1.152c-0.152,0.395-0.287,0.799-0.4,1.206c-0.158,0.599-0.473,1.516-0.289,2.117
				C229.502,40.002,229.543,39.985,229.543,40.002z M235.605,40.358c0.396-0.287,0.789-0.558,1.127-0.897
				c0.338-0.341,0.689-0.682,0.973-1.07c0.289-0.369,0.502-0.818,0.744-1.238c-0.018-0.149-0.045-0.296-0.242-0.258
				c-0.316,0.245-0.695,0.634-1.084,1.047c-0.342,0.373-0.689,0.765-0.973,1.134C235.66,39.74,235.367,40.282,235.605,40.358z"/>
		</g>
		<g>
			<path d="M194.016,38.699c-0.082,0.472-0.168,0.949-0.1,1.414c0.055,0.401,0.139,0.831,0.301,1.193
				c0.168,0.401,0.367,0.787,0.637,1.076c0.301,0.315,0.695,0.497,1.1,0.551c0.389,0.055,0.875-0.063,1.393-0.312
				c0.416-0.188,0.838-0.452,1.268-0.713c0.41-0.268,0.828-0.545,1.215-0.803c0.428-0.283,0.764-0.525,0.996-0.748
				c0.309-0.287,0.551-0.634,0.5-1.066c-0.121-1.127-1.18-0.682-1.793-0.236c-0.424,0.297-0.879,0.573-1.211,0.93
				c-0.385,0.418-1.205,0.869-1.754,0.573c-0.518-0.286-0.734-1.162-0.609-1.706c0.104-0.442,0.916-1.079,1.354-1.372
				c0.369-0.245,0.824-0.437,1.258-0.646c0.455-0.223,0.879-0.487,1.207-0.751c0.307-0.245,0.666-0.535,1.031-0.851
				c0.326-0.286,0.664-0.589,0.961-0.93c0.301-0.35,0.549-0.723,0.744-1.102c0.221-0.414,0.287-0.827,0.279-1.238
				c-0.004-0.471-0.107-0.892-0.348-1.232c-0.338-0.478-0.697-0.731-1.076-0.844c-0.447-0.133-0.889-0.057-1.357,0.159
				c-0.393,0.176-0.826,0.392-1.207,0.717c-0.357,0.296-0.699,0.649-1.02,0.987c-0.348,0.356-0.668,0.729-0.965,1.057
				c-0.373,0.414-0.684,0.831-0.959,1.034C195.859,33.841,194.584,35.528,194.016,38.699z M200.434,31.938
				c0.246-0.02,0.262,0.14,0.262,0.312c-0.32,0.449-0.668,0.886-1.02,1.287c-0.369,0.417-0.734,0.821-1.154,1.171
				c-0.418,0.344-0.869,0.685-1.346,0.962c-0.262-0.108,0.104-0.758,0.729-1.455c0.348-0.389,0.758-0.838,1.186-1.223
				C199.563,32.552,200.064,32.198,200.434,31.938z"/>
		</g>
	</g>
</g>
</svg>
